<svg width="128" height="128" viewBox="0 0 128 128" fill="none" xmlns="http://www.w3.org/2000/svg">
<path d="M64 126C98.2417 126 126 98.2417 126 64C126 29.7583 98.2417 2 64 2C29.7583 2 2 29.7583 2 64C2 98.2417 29.7583 126 64 126Z" fill="#000080" stroke="white" stroke-width="2.5"/>
<path d="M93.381 26.885C93.283 26.085 93.366 25.245 93.068 24.576C92.042 22.279 89.994 21.591 87.44 22.625C84.486 23.822 81.855 25.598 79.432 27.616C75.715 30.71 72.153 33.99 68.498 37.16C67.106 38.368 65.642 39.49 64.154 40.696C63.912 38.831 63.061 38.123 61.316 38.467C60.129 38.701 58.995 39.204 57.838 39.592C55.814 40.271 53.834 41.208 51.755 41.571C49.228 42.013 47.436 43.179 46.059 45.291C43.508 49.204 40.502 52.765 37.355 56.21C36.957 56.646 36.642 57.21 36.447 57.771C35.14 61.529 33.838 65.29 32.609 69.074C31.556 72.316 29.899 75.402 29.99 78.959C29.998 79.242 29.61 79.645 29.306 79.807C27.689 80.677 26.035 81.477 24.408 82.33C24.192 82.443 24.058 82.714 23.887 82.911C24.145 82.912 24.448 83.003 24.655 82.9C26.221 82.13 27.749 81.279 29.33 80.544C30.212 80.134 30.633 79.571 30.684 78.587C30.745 77.432 30.775 76.223 31.133 75.143C33.044 69.393 35.05 63.673 37.037 57.948C37.174 57.553 37.356 57.134 37.635 56.834C41.121 53.071 44.304 49.066 47.193 44.83C48.13 43.457 49.353 42.65 51.011 42.403C53.633 42.011 56.11 41.156 58.501 39.996C59.447 39.537 60.516 39.285 61.555 39.071C62.197 38.94 62.957 38.945 63.331 39.685C63.73 40.477 63.487 41.287 62.738 41.923C62.364 42.241 62.009 42.586 61.608 42.865C57.236 45.912 52.821 48.9 48.49 52.005C45.355 54.252 42.326 56.646 39.261 58.99C39.012 59.18 38.852 59.485 38.651 59.736C38.724 59.812 38.798 59.888 38.873 59.964C39.102 59.819 39.349 59.696 39.555 59.524C40.167 59.013 40.723 58.427 41.37 57.969C45.623 54.965 49.834 51.897 54.173 49.023C59.839 45.272 65.02 40.926 70.136 36.487C71.869 34.983 73.613 33.489 75.353 31.992C76.421 31.074 77.53 30.199 78.554 29.234C80.963 26.965 83.705 25.187 86.623 23.67C87.345 23.295 88.159 23.07 88.955 22.868C90.133 22.569 91.119 22.961 91.917 23.869C92.74 24.807 93.054 25.842 92.409 26.984C92.1 27.53 91.727 28.075 91.271 28.499C85.629 33.73 79.723 38.67 74.424 44.276C72.478 46.334 70.177 48.057 68.046 49.941C67.901 50.069 67.817 50.265 67.703 50.43C67.769 50.501 67.836 50.572 67.902 50.642C68.254 50.451 68.656 50.317 68.948 50.059C70.989 48.254 73.126 46.538 75.01 44.579C81.739 37.584 89.066 31.256 96.481 25.021C97.393 24.254 98.472 23.924 99.623 23.895C101.903 23.837 103.466 26.555 102.406 28.814C101.997 29.686 101.381 30.484 100.749 31.223C98.979 33.293 97.165 35.324 95.348 37.351C90.172 43.123 85.126 49.02 79.093 53.959C78.229 54.666 77.557 55.615 76.832 56.483C76.622 56.735 76.54 57.094 76.399 57.404C76.477 57.464 76.556 57.525 76.634 57.585C76.804 57.439 76.993 57.31 77.14 57.144C78.049 56.116 78.817 54.913 79.874 54.073C84.175 50.661 87.783 46.562 91.498 42.573C94.172 39.702 96.705 36.7 99.311 33.766C100.151 32.821 101.169 32.6 102.198 33.09C104.068 33.981 104.874 36.797 103.734 38.516C100.908 42.779 98.088 47.036 94.951 51.093C92.389 54.406 89.726 57.572 86.587 60.347C85.582 61.236 84.626 62.221 83.829 63.297C82.537 65.041 81.387 66.891 80.202 68.713C80.087 68.891 80.149 69.184 80.129 69.423C80.328 69.282 80.572 69.176 80.717 68.992C80.942 68.705 81.097 68.364 81.283 68.048C82.867 65.37 84.757 62.948 86.982 60.754C90.602 57.187 94.122 53.518 97.68 49.888C98.259 49.298 98.772 48.634 99.397 48.098C100.338 47.29 101.679 47.361 102.244 48.241C102.831 49.156 103.322 50.199 102.934 51.278C102.412 52.736 101.812 54.192 101.036 55.527C98.649 59.633 95.427 63.112 92.349 66.686C88.69 70.936 84.87 75.047 82.102 79.989C81.587 80.909 80.866 81.766 80.077 82.471C75.368 86.677 70.675 90.906 65.851 94.981C61.176 98.93 56.177 102.398 50.275 104.357C48.954 104.796 47.717 105.489 46.442 106.064C46.469 106.178 46.498 106.292 46.526 106.405C46.912 106.342 47.329 106.351 47.679 106.202C49.229 105.545 50.72 104.735 52.303 104.179C55.788 102.953 58.869 101.04 61.823 98.882C67.7 94.587 73.094 89.72 78.498 84.86C80.831 82.761 82.707 80.363 84.349 77.709C85.504 75.841 86.848 74.074 88.249 72.379C90.69 69.425 93.249 66.57 95.741 63.659C98.315 60.652 100.818 57.586 102.595 54.017C103.028 53.148 103.368 52.21 103.59 51.266C103.937 49.785 103.028 47.69 101.93 47.16C100.755 46.593 99.42 47.047 98.134 48.452C97.692 48.936 97.253 49.424 96.813 49.91C96.746 49.726 96.792 49.629 96.852 49.541C99.311 45.994 101.763 42.442 104.234 38.903C104.952 37.875 105.169 36.795 104.771 35.597C104.143 33.702 103.104 32.274 100.782 32.195C101.044 31.882 101.264 31.673 101.42 31.424C102.015 30.469 102.781 29.567 103.132 28.527C104.172 25.442 101.699 22.707 98.549 23.455C97.552 23.691 96.608 24.299 95.739 24.885C94.863 25.477 94.111 26.254 93.381 26.885Z" stroke="white" stroke-width="2.5"/>
<path d="M93.381 26.885C94.111 26.254 94.863 25.477 95.739 24.885C96.607 24.299 97.551 23.691 98.549 23.455C101.699 22.707 104.172 25.442 103.132 28.527C102.781 29.568 102.015 30.47 101.42 31.424C101.265 31.674 101.044 31.882 100.782 32.195C103.104 32.274 104.143 33.702 104.771 35.597C105.168 36.795 104.952 37.875 104.234 38.903C101.763 42.442 99.311 45.993 96.852 49.541C96.791 49.628 96.746 49.726 96.813 49.91C97.253 49.424 97.692 48.937 98.134 48.452C99.42 47.047 100.755 46.594 101.93 47.16C103.028 47.69 103.937 49.785 103.59 51.266C103.368 52.21 103.028 53.149 102.595 54.017C100.819 57.586 98.316 60.652 95.741 63.659C93.249 66.571 90.69 69.426 88.249 72.379C86.848 74.074 85.504 75.841 84.349 77.709C82.707 80.363 80.831 82.761 78.498 84.86C73.094 89.72 67.7 94.588 61.823 98.882C58.87 101.04 55.789 102.953 52.303 104.179C50.72 104.736 49.229 105.545 47.679 106.202C47.328 106.351 46.911 106.342 46.526 106.405C46.498 106.292 46.469 106.178 46.442 106.064C47.717 105.489 48.954 104.796 50.275 104.357C56.177 102.398 61.176 98.93 65.851 94.981C70.674 90.906 75.368 86.677 80.077 82.471C80.866 81.766 81.588 80.909 82.102 79.989C84.87 75.048 88.69 70.936 92.349 66.686C95.426 63.112 98.649 59.633 101.036 55.527C101.812 54.192 102.412 52.736 102.934 51.278C103.322 50.199 102.83 49.155 102.244 48.241C101.68 47.362 100.339 47.29 99.397 48.098C98.772 48.634 98.259 49.297 97.68 49.888C94.121 53.518 90.602 57.186 86.982 60.754C84.756 62.948 82.867 65.37 81.283 68.048C81.096 68.364 80.941 68.705 80.717 68.992C80.572 69.176 80.328 69.282 80.129 69.423C80.15 69.184 80.087 68.891 80.202 68.713C81.387 66.891 82.537 65.041 83.829 63.297C84.626 62.221 85.582 61.236 86.587 60.347C89.727 57.572 92.39 54.406 94.951 51.093C98.088 47.035 100.908 42.779 103.734 38.516C104.874 36.797 104.068 33.981 102.198 33.09C101.17 32.6 100.151 32.82 99.311 33.766C96.705 36.7 94.171 39.702 91.498 42.573C87.783 46.562 84.175 50.66 79.874 54.073C78.816 54.912 78.049 56.115 77.14 57.144C76.994 57.31 76.804 57.439 76.634 57.585C76.556 57.524 76.477 57.464 76.399 57.404C76.54 57.094 76.622 56.735 76.832 56.483C77.557 55.615 78.228 54.666 79.093 53.959C85.126 49.02 90.172 43.123 95.348 37.351C97.165 35.324 98.98 33.292 100.749 31.223C101.381 30.485 101.997 29.686 102.406 28.814C103.466 26.555 101.903 23.837 99.623 23.895C98.473 23.924 97.394 24.255 96.481 25.021C89.066 31.256 81.74 37.584 75.01 44.579C73.126 46.538 70.989 48.254 68.948 50.059C68.656 50.317 68.254 50.451 67.902 50.642C67.836 50.571 67.769 50.5 67.703 50.43C67.816 50.265 67.901 50.07 68.046 49.941C70.177 48.057 72.478 46.334 74.424 44.276C79.723 38.67 85.629 33.73 91.271 28.499C91.727 28.076 92.1 27.531 92.409 26.984C93.054 25.841 92.74 24.807 91.917 23.869C91.119 22.96 90.133 22.569 88.955 22.868C88.159 23.07 87.345 23.294 86.623 23.67C83.705 25.187 80.963 26.965 78.554 29.234C77.53 30.199 76.421 31.074 75.353 31.992C73.613 33.489 71.87 34.983 70.136 36.487C65.02 40.926 59.839 45.272 54.173 49.023C49.834 51.897 45.623 54.965 41.37 57.969C40.723 58.427 40.167 59.013 39.555 59.524C39.349 59.696 39.102 59.819 38.873 59.964C38.799 59.888 38.725 59.813 38.651 59.736C38.852 59.485 39.012 59.18 39.261 58.99C42.325 56.646 45.355 54.252 48.49 52.005C52.821 48.9 57.236 45.912 61.608 42.865C62.009 42.586 62.364 42.24 62.738 41.923C63.487 41.286 63.73 40.476 63.331 39.685C62.957 38.945 62.196 38.939 61.555 39.071C60.516 39.284 59.448 39.536 58.501 39.996C56.109 41.156 53.633 42.011 51.011 42.403C49.353 42.651 48.129 43.457 47.193 44.83C44.304 49.066 41.122 53.071 37.635 56.834C37.357 57.134 37.174 57.553 37.037 57.948C35.05 63.673 33.044 69.393 31.133 75.143C30.775 76.223 30.744 77.432 30.684 78.587C30.633 79.571 30.212 80.134 29.33 80.544C27.749 81.279 26.222 82.131 24.655 82.9C24.448 83.003 24.145 82.912 23.887 82.911C24.058 82.714 24.192 82.443 24.408 82.33C26.035 81.477 27.689 80.677 29.306 79.807C29.61 79.644 29.997 79.242 29.99 78.959C29.899 75.402 31.556 72.316 32.609 69.074C33.838 65.29 35.14 61.529 36.447 57.771C36.642 57.21 36.957 56.646 37.355 56.21C40.502 52.764 43.508 49.203 46.059 45.291C47.436 43.18 49.228 42.013 51.755 41.571C53.834 41.208 55.814 40.271 57.838 39.592C58.994 39.204 60.129 38.701 61.316 38.467C63.061 38.123 63.912 38.831 64.154 40.696C65.641 39.49 67.106 38.367 68.498 37.16C72.152 33.99 75.715 30.71 79.432 27.616C81.855 25.598 84.486 23.822 87.44 22.625C89.994 21.591 92.042 22.279 93.068 24.576C93.366 25.245 93.283 26.084 93.381 26.885Z" stroke="white" stroke-width="2.5"/>
</svg>
