<svg width="128" height="128" viewBox="0 0 128 128" fill="none" xmlns="http://www.w3.org/2000/svg">
<path d="M64 126C98.2417 126 126 98.2417 126 64C126 29.7583 98.2417 2 64 2C29.7583 2 2 29.7583 2 64C2 98.2417 29.7583 126 64 126Z" fill="#800000" stroke="white" stroke-width="2.5"/>
<path d="M37.285 108.183C37.315 108.317 37.345 108.452 37.375 108.586C37.714 108.498 38.103 108.489 38.384 108.311C42.523 105.675 46.742 103.208 51.351 101.449C54.662 100.184 58.017 99.031 61.042 97.08C63.143 95.725 65.372 94.533 67.641 93.479C70.851 91.988 73.748 90.096 76.217 87.566C79.933 83.758 84.023 80.398 88.326 77.279C89.935 76.113 91.433 74.79 92.943 73.492C93.296 73.19 93.489 72.703 93.753 72.299C94.345 71.39 94.774 70.298 95.558 69.607C97.368 68.008 97.788 66.11 97.317 63.878C96.924 62.023 96.482 60.176 96.133 58.313C95.628 55.608 94.884 53.002 93.237 50.746C92.676 49.977 92.382 49.191 92.387 48.209C92.392 47.575 92.114 46.887 91.798 46.312C90.288 43.558 88.448 41.033 86.22 38.815C85.782 38.378 85.748 38.036 85.848 37.468C86.008 36.556 86.304 35.492 85.996 34.707C84.993 32.146 83.278 30.229 80.39 29.657C77.403 29.066 74.415 29.232 71.417 29.508C71.049 29.542 70.579 29.516 70.301 29.316C69.22 28.54 68.046 28.51 66.873 28.867C64.127 29.701 61.769 31.217 59.706 33.199C59.51 33.388 59.315 33.606 59.197 33.847C57.759 36.788 55.478 39.087 53.331 41.474C49.685 45.525 47.228 50.168 45.998 55.475C45.307 58.457 44.59 61.433 43.844 64.402C43.629 65.256 43.447 66.197 42.951 66.885C40.81 69.865 38.094 72.129 34.475 73.143C32.651 73.655 30.779 74.048 29.017 74.725C24.875 76.316 20.784 78.038 16.682 79.732C16.465 79.822 16.34 80.135 16.172 80.344C16.252 80.417 16.331 80.49 16.41 80.562C16.689 80.455 16.972 80.355 17.247 80.24C19.93 79.116 22.585 77.924 25.298 76.882C27.95 75.864 30.605 74.762 33.358 74.126C37.233 73.231 40.24 71.151 42.742 68.225C43.394 67.461 43.876 66.472 44.18 65.506C44.732 63.759 45.079 61.947 45.534 60.168C46.231 57.442 46.801 54.673 47.69 52.011C49.141 47.671 51.754 44.02 54.856 40.679C56.249 39.18 57.712 37.649 58.685 35.879C60.592 32.409 63.66 30.675 67.167 29.447C68.121 29.113 69.076 29.237 69.974 29.843C70.339 30.09 70.878 30.188 71.333 30.175C73.444 30.119 75.556 29.888 77.662 29.933C80.6 29.996 83.164 30.854 84.828 33.612C85.73 35.108 85.707 36.464 85.004 37.974C83.701 37.448 82.355 37.14 81.384 35.945C80.963 35.425 80.065 35.066 79.368 35.042C77.88 34.99 76.383 35.196 74.89 35.312C74.31 35.357 73.734 35.441 73.156 35.506C73.151 35.618 73.147 35.73 73.142 35.842C73.49 35.889 73.842 35.999 74.183 35.97C75.525 35.851 76.861 35.669 78.203 35.546C79.778 35.402 81.013 35.984 81.853 37.355C82.19 37.903 82.547 38.438 82.915 38.965C83.177 39.341 83.441 39.726 83.768 40.041C83.918 40.186 84.221 40.171 84.455 40.229C84.373 40.032 84.323 39.813 84.204 39.641C83.843 39.119 83.455 38.614 83.077 38.102C83.145 38.026 83.214 37.949 83.282 37.873C84.106 38.314 85.086 38.597 85.725 39.226C88.01 41.469 89.89 44.046 91.377 46.888C91.639 47.388 91.69 47.997 91.839 48.556C91.713 48.625 91.587 48.696 91.462 48.765C90.778 47.944 89.945 47.203 89.446 46.284C88.691 44.891 87.649 44.113 86.105 43.861C84.873 43.659 83.661 43.334 82.437 43.075C82.334 43.053 82.215 43.11 81.814 43.185C82.227 43.494 82.431 43.752 82.683 43.814C83.632 44.046 84.589 44.293 85.558 44.389C87.289 44.56 88.458 45.377 89.1 47.007C89.424 47.83 89.841 48.62 90.261 49.402C90.413 49.685 90.695 49.899 90.916 50.145C91.001 50.093 91.086 50.041 91.17 49.991C91.024 49.616 90.879 49.242 90.71 48.81C92.49 50.223 94.708 54.035 94.784 55.86C94.558 55.495 94.386 55.215 94.212 54.935C94.105 54.968 93.997 55.001 93.889 55.034C93.981 55.394 93.98 55.82 94.18 56.104C95.232 57.592 95.808 59.168 95.409 61.02C95.29 61.569 95.428 62.011 96.182 61.62C96.355 62.398 96.496 63.088 96.662 63.77C97.202 65.994 96.752 67.862 94.888 69.356C94.29 69.835 93.706 70.533 93.492 71.244C93.119 72.479 92.343 73.306 91.411 74.068C90.628 74.709 89.863 75.375 89.043 75.964C84.079 79.529 79.369 83.388 75.084 87.761C73.207 89.677 70.986 91.14 68.563 92.326C66.038 93.561 63.592 94.961 61.095 96.256C58.926 97.38 56.757 98.507 54.543 99.536C53.103 100.206 51.585 100.709 50.099 101.279C45.532 103.03 41.461 105.701 37.285 108.183Z" stroke="white" stroke-width="2.5"/>
<path d="M37.285 108.183C41.461 105.702 45.532 103.031 50.104 101.275C51.59 100.705 53.108 100.202 54.548 99.532C56.762 98.503 58.931 97.376 61.1 96.252C63.597 94.957 66.042 93.558 68.568 92.322C70.991 91.135 73.212 89.673 75.089 87.757C79.374 83.384 84.084 79.526 89.048 75.96C89.868 75.37 90.633 74.704 91.416 74.064C92.348 73.302 93.124 72.475 93.497 71.24C93.712 70.529 94.296 69.831 94.893 69.352C96.757 67.858 97.207 65.99 96.667 63.766C96.501 63.083 96.359 62.394 96.187 61.616C95.432 62.008 95.294 61.565 95.414 61.016C95.812 59.164 95.236 57.588 94.185 56.1C93.985 55.816 93.986 55.39 93.894 55.03C94.002 54.998 94.11 54.965 94.217 54.931C94.391 55.211 94.564 55.491 94.789 55.856C94.713 54.031 92.495 50.219 90.715 48.806C90.884 49.238 91.029 49.612 91.175 49.987C91.091 50.038 91.006 50.09 90.921 50.141C90.699 49.895 90.418 49.681 90.266 49.398C89.846 48.617 89.429 47.827 89.105 47.003C88.463 45.373 87.294 44.556 85.563 44.385C84.594 44.289 83.637 44.042 82.688 43.81C82.436 43.748 82.232 43.49 81.819 43.181C82.22 43.106 82.34 43.048 82.442 43.071C83.666 43.33 84.878 43.655 86.11 43.857C87.654 44.109 88.696 44.887 89.451 46.28C89.95 47.2 90.783 47.94 91.467 48.761C91.592 48.692 91.718 48.621 91.844 48.552C91.696 47.993 91.644 47.384 91.382 46.884C89.895 44.042 88.015 41.465 85.73 39.222C85.09 38.593 84.111 38.311 83.287 37.869C83.219 37.945 83.15 38.022 83.082 38.098C83.46 38.61 83.848 39.115 84.209 39.637C84.328 39.809 84.378 40.028 84.46 40.225C84.227 40.166 83.924 40.181 83.773 40.037C83.447 39.722 83.182 39.337 82.92 38.961C82.552 38.434 82.194 37.899 81.858 37.351C81.017 35.98 79.783 35.399 78.208 35.542C76.866 35.665 75.53 35.847 74.188 35.966C73.847 35.995 73.495 35.885 73.147 35.838C73.152 35.726 73.156 35.614 73.161 35.502C73.739 35.437 74.315 35.353 74.895 35.308C76.387 35.193 77.884 34.987 79.373 35.038C80.069 35.062 80.968 35.422 81.389 35.941C82.36 37.136 83.706 37.444 85.009 37.97C85.712 36.459 85.736 35.104 84.833 33.608C83.169 30.85 80.605 29.993 77.667 29.929C75.561 29.884 73.449 30.116 71.338 30.171C70.883 30.184 70.344 30.086 69.979 29.839C69.082 29.234 68.126 29.11 67.172 29.443C63.664 30.671 60.597 32.405 58.69 35.875C57.717 37.645 56.253 39.176 54.861 40.675C51.759 44.016 49.146 47.667 47.695 52.007C46.805 54.669 46.236 57.439 45.539 60.164C45.084 61.943 44.736 63.755 44.185 65.502C43.88 66.468 43.399 67.457 42.747 68.221C40.245 71.148 37.238 73.228 33.363 74.122C30.61 74.758 27.956 75.86 25.303 76.878C22.59 77.92 19.935 79.112 17.252 80.236C16.977 80.351 16.694 80.451 16.415 80.558C16.336 80.486 16.257 80.413 16.177 80.34C16.345 80.131 16.47 79.818 16.687 79.728C20.789 78.035 24.88 76.312 29.022 74.721C30.784 74.044 32.656 73.651 34.48 73.139C38.098 72.125 40.815 69.862 42.956 66.881C43.451 66.193 43.634 65.251 43.849 64.398C44.595 61.429 45.312 58.454 46.003 55.471C47.233 50.164 49.691 45.521 53.336 41.47C55.483 39.083 57.765 36.784 59.202 33.843C59.32 33.602 59.514 33.384 59.711 33.195C61.773 31.213 64.132 29.697 66.878 28.863C68.051 28.507 69.225 28.536 70.306 29.312C70.584 29.512 71.054 29.539 71.422 29.504C74.42 29.229 77.407 29.063 80.395 29.653C83.284 30.225 84.999 32.142 86.001 34.703C86.309 35.488 86.013 36.552 85.853 37.464C85.753 38.031 85.787 38.374 86.225 38.811C88.454 41.029 90.293 43.554 91.803 46.308C92.118 46.883 92.397 47.572 92.392 48.205C92.386 49.187 92.681 49.974 93.242 50.742C94.888 52.999 95.633 55.604 96.138 58.309C96.487 60.172 96.929 62.019 97.322 63.874C97.794 66.106 97.373 68.005 95.563 69.603C94.78 70.294 94.35 71.386 93.758 72.295C93.494 72.699 93.301 73.187 92.948 73.488C91.438 74.786 89.94 76.109 88.331 77.275C84.027 80.394 79.937 83.754 76.222 87.562C73.753 90.092 70.856 91.984 67.646 93.475C65.377 94.529 63.148 95.72 61.047 97.076C58.022 99.027 54.666 100.18 51.356 101.445C46.748 103.205 42.528 105.672 38.389 108.307C38.108 108.486 37.719 108.495 37.38 108.582C37.345 108.451 37.315 108.316 37.285 108.183Z" stroke="white" stroke-width="2.5"/>
</svg>
