<svg width="250" height="250" viewBox="0 0 460 440" fill="none" xmlns="http://www.w3.org/2000/svg">
<path d="M135.041 336.998C90.708 305.877 61.031 255.295 58.42 197.659" stroke="white" stroke-width="3"/>
<path d="M65.622 209.081L63.785 209.874L58.592 197.846L54.839 210.397L52.923 209.824L58.251 192.009L65.622 209.081Z" fill="white"/>
<path d="M418.646 195C416.761 256.366 384.205 310.01 335.789 341.119" stroke="white" stroke-width="3"/>
<path d="M342.052 329.151L343.659 330.344L335.863 340.872L348.603 337.817L349.069 339.762L330.987 344.098L342.052 329.151Z" fill="white"/>
<path d="M143.042 36.426C170.719 19.118 203.433 9.114 238.482 9.114C270.283 9.114 300.16 17.349 326.099 31.804" stroke="white" stroke-width="3"/>
<path d="M312.591 31.921L312.884 29.942L325.845 31.852L317.144 22.058L318.638 20.73L330.988 34.631L312.591 31.921Z" fill="white"/>
<path d="M237 427C271.242 427 299 399.242 299 365C299 330.758 271.242 303 237 303C202.758 303 175 330.758 175 365C175 399.242 202.758 427 237 427Z" fill="#800000" stroke="white" stroke-width="2.5"/>
<path d="M210.285 409.183C210.315 409.317 210.345 409.452 210.375 409.586C210.714 409.498 211.103 409.489 211.384 409.311C215.523 406.675 219.742 404.208 224.351 402.449C227.662 401.184 231.017 400.031 234.042 398.08C236.143 396.725 238.372 395.533 240.641 394.479C243.851 392.988 246.748 391.096 249.217 388.566C252.933 384.758 257.023 381.398 261.326 378.279C262.935 377.113 264.433 375.79 265.943 374.492C266.296 374.19 266.489 373.703 266.753 373.299C267.345 372.39 267.774 371.298 268.558 370.607C270.368 369.008 270.788 367.11 270.317 364.878C269.924 363.023 269.482 361.176 269.133 359.313C268.628 356.608 267.884 354.002 266.237 351.746C265.676 350.977 265.382 350.191 265.387 349.209C265.392 348.575 265.114 347.887 264.798 347.312C263.288 344.558 261.448 342.033 259.22 339.815C258.782 339.378 258.748 339.036 258.848 338.468C259.008 337.556 259.304 336.492 258.996 335.707C257.993 333.146 256.278 331.229 253.39 330.657C250.403 330.066 247.415 330.232 244.417 330.508C244.049 330.542 243.579 330.516 243.301 330.316C242.22 329.54 241.046 329.51 239.873 329.867C237.127 330.701 234.769 332.217 232.706 334.199C232.51 334.388 232.315 334.606 232.197 334.847C230.759 337.788 228.478 340.087 226.331 342.474C222.685 346.525 220.228 351.168 218.998 356.475C218.307 359.457 217.59 362.433 216.844 365.402C216.629 366.256 216.447 367.197 215.951 367.885C213.81 370.865 211.094 373.129 207.475 374.143C205.651 374.655 203.779 375.048 202.017 375.725C197.875 377.316 193.784 379.038 189.682 380.732C189.465 380.822 189.34 381.135 189.172 381.344C189.252 381.417 189.331 381.49 189.41 381.562C189.689 381.455 189.972 381.355 190.247 381.24C192.93 380.116 195.585 378.924 198.298 377.882C200.95 376.864 203.605 375.762 206.358 375.126C210.233 374.231 213.24 372.151 215.742 369.225C216.394 368.461 216.876 367.472 217.18 366.506C217.732 364.759 218.079 362.947 218.534 361.168C219.231 358.442 219.801 355.673 220.69 353.011C222.141 348.671 224.754 345.02 227.856 341.679C229.249 340.18 230.712 338.649 231.685 336.879C233.592 333.409 236.66 331.675 240.167 330.447C241.121 330.113 242.076 330.237 242.974 330.843C243.339 331.09 243.878 331.188 244.333 331.175C246.444 331.119 248.556 330.888 250.662 330.933C253.6 330.996 256.164 331.854 257.828 334.612C258.73 336.108 258.707 337.464 258.004 338.974C256.701 338.448 255.355 338.14 254.384 336.945C253.963 336.425 253.065 336.066 252.368 336.042C250.88 335.99 249.383 336.196 247.89 336.312C247.31 336.357 246.734 336.441 246.156 336.506C246.151 336.618 246.147 336.73 246.142 336.842C246.49 336.889 246.842 336.999 247.183 336.97C248.525 336.851 249.861 336.669 251.203 336.546C252.778 336.402 254.013 336.984 254.853 338.355C255.19 338.903 255.547 339.438 255.915 339.965C256.177 340.341 256.441 340.726 256.768 341.041C256.918 341.186 257.221 341.171 257.455 341.229C257.373 341.032 257.323 340.813 257.204 340.641C256.843 340.119 256.455 339.614 256.077 339.102C256.145 339.026 256.214 338.949 256.282 338.873C257.106 339.314 258.086 339.597 258.725 340.226C261.01 342.469 262.89 345.046 264.377 347.888C264.639 348.388 264.69 348.997 264.839 349.556C264.713 349.625 264.587 349.696 264.462 349.765C263.778 348.944 262.945 348.203 262.446 347.284C261.691 345.891 260.649 345.113 259.105 344.861C257.873 344.659 256.661 344.334 255.437 344.075C255.334 344.053 255.215 344.11 254.814 344.185C255.227 344.494 255.431 344.752 255.683 344.814C256.632 345.046 257.589 345.293 258.558 345.389C260.289 345.56 261.458 346.377 262.1 348.007C262.424 348.83 262.841 349.62 263.261 350.402C263.413 350.685 263.695 350.899 263.916 351.145C264.001 351.093 264.086 351.041 264.17 350.991C264.024 350.616 263.879 350.242 263.71 349.81C265.49 351.223 267.708 355.035 267.784 356.86C267.558 356.495 267.386 356.215 267.212 355.935C267.105 355.968 266.997 356.001 266.889 356.034C266.981 356.394 266.98 356.82 267.18 357.104C268.232 358.592 268.808 360.168 268.409 362.02C268.29 362.569 268.428 363.011 269.182 362.62C269.355 363.398 269.496 364.088 269.662 364.77C270.202 366.994 269.752 368.862 267.888 370.356C267.29 370.835 266.706 371.533 266.492 372.244C266.119 373.479 265.343 374.306 264.411 375.068C263.628 375.709 262.863 376.375 262.043 376.964C257.079 380.529 252.369 384.388 248.084 388.761C246.207 390.677 243.986 392.14 241.563 393.326C239.038 394.561 236.592 395.961 234.095 397.256C231.926 398.38 229.757 399.507 227.543 400.536C226.103 401.206 224.585 401.709 223.099 402.279C218.532 404.03 214.461 406.701 210.285 409.183Z" stroke="white" stroke-width="2.5"/>
<path d="M210.285 409.183C214.461 406.702 218.532 404.031 223.104 402.275C224.59 401.705 226.108 401.202 227.548 400.532C229.762 399.503 231.931 398.376 234.1 397.252C236.597 395.957 239.042 394.558 241.568 393.322C243.991 392.135 246.212 390.673 248.089 388.757C252.374 384.384 257.084 380.526 262.048 376.96C262.868 376.37 263.633 375.704 264.416 375.064C265.348 374.302 266.124 373.475 266.497 372.24C266.712 371.529 267.296 370.831 267.893 370.352C269.757 368.858 270.207 366.99 269.667 364.766C269.501 364.083 269.359 363.394 269.187 362.616C268.432 363.008 268.294 362.565 268.414 362.016C268.812 360.164 268.236 358.588 267.185 357.1C266.985 356.816 266.986 356.39 266.894 356.03C267.002 355.998 267.11 355.965 267.217 355.931C267.391 356.211 267.564 356.491 267.789 356.856C267.713 355.031 265.495 351.219 263.715 349.806C263.884 350.238 264.029 350.612 264.175 350.987C264.091 351.038 264.006 351.09 263.921 351.141C263.699 350.895 263.418 350.681 263.266 350.398C262.846 349.617 262.429 348.827 262.105 348.003C261.463 346.373 260.294 345.556 258.563 345.385C257.594 345.289 256.637 345.042 255.688 344.81C255.436 344.748 255.232 344.49 254.819 344.181C255.22 344.106 255.34 344.048 255.442 344.071C256.666 344.33 257.878 344.655 259.11 344.857C260.654 345.109 261.696 345.887 262.451 347.28C262.95 348.2 263.783 348.94 264.467 349.761C264.592 349.692 264.718 349.621 264.844 349.552C264.696 348.993 264.644 348.384 264.382 347.884C262.895 345.042 261.015 342.465 258.73 340.222C258.09 339.593 257.111 339.311 256.287 338.869C256.219 338.945 256.15 339.022 256.082 339.098C256.46 339.61 256.848 340.115 257.209 340.637C257.328 340.809 257.378 341.028 257.46 341.225C257.227 341.166 256.924 341.181 256.773 341.037C256.447 340.722 256.182 340.337 255.92 339.961C255.552 339.434 255.194 338.899 254.858 338.351C254.017 336.98 252.783 336.399 251.208 336.542C249.866 336.665 248.53 336.847 247.188 336.966C246.847 336.995 246.495 336.885 246.147 336.838C246.152 336.726 246.156 336.614 246.161 336.502C246.739 336.437 247.315 336.353 247.895 336.308C249.387 336.193 250.884 335.987 252.373 336.038C253.069 336.062 253.968 336.422 254.389 336.941C255.36 338.136 256.706 338.444 258.009 338.97C258.712 337.459 258.736 336.104 257.833 334.608C256.169 331.85 253.605 330.993 250.667 330.929C248.561 330.884 246.449 331.116 244.338 331.171C243.883 331.184 243.344 331.086 242.979 330.839C242.082 330.234 241.126 330.11 240.172 330.443C236.664 331.671 233.597 333.405 231.69 336.875C230.717 338.645 229.253 340.176 227.861 341.675C224.759 345.016 222.146 348.667 220.695 353.007C219.805 355.669 219.236 358.439 218.539 361.164C218.084 362.943 217.736 364.755 217.185 366.502C216.88 367.468 216.399 368.457 215.747 369.221C213.245 372.148 210.238 374.228 206.363 375.122C203.61 375.758 200.956 376.86 198.303 377.878C195.59 378.92 192.935 380.112 190.252 381.236C189.977 381.351 189.694 381.451 189.415 381.558C189.336 381.486 189.257 381.413 189.177 381.34C189.345 381.131 189.47 380.818 189.687 380.728C193.789 379.035 197.88 377.312 202.022 375.721C203.784 375.044 205.656 374.651 207.48 374.139C211.098 373.125 213.815 370.862 215.956 367.881C216.451 367.193 216.634 366.251 216.849 365.398C217.595 362.429 218.312 359.454 219.003 356.471C220.233 351.164 222.691 346.521 226.336 342.47C228.483 340.083 230.765 337.784 232.202 334.843C232.32 334.602 232.514 334.384 232.711 334.195C234.773 332.213 237.132 330.697 239.878 329.863C241.051 329.507 242.225 329.536 243.306 330.312C243.584 330.512 244.054 330.539 244.422 330.504C247.42 330.229 250.407 330.063 253.395 330.653C256.284 331.225 257.999 333.142 259.001 335.703C259.309 336.488 259.013 337.552 258.853 338.464C258.753 339.031 258.787 339.374 259.225 339.811C261.454 342.029 263.293 344.554 264.803 347.308C265.118 347.883 265.397 348.572 265.392 349.205C265.386 350.187 265.681 350.974 266.242 351.742C267.888 353.999 268.633 356.604 269.138 359.309C269.487 361.172 269.929 363.019 270.322 364.874C270.794 367.106 270.373 369.005 268.563 370.603C267.78 371.294 267.35 372.386 266.758 373.295C266.494 373.699 266.301 374.187 265.948 374.488C264.438 375.786 262.94 377.109 261.331 378.275C257.027 381.394 252.937 384.754 249.222 388.562C246.753 391.092 243.856 392.984 240.646 394.475C238.377 395.529 236.148 396.72 234.047 398.076C231.022 400.027 227.666 401.18 224.356 402.445C219.748 404.205 215.528 406.672 211.389 409.307C211.108 409.486 210.719 409.495 210.38 409.582C210.345 409.451 210.315 409.316 210.285 409.183Z" stroke="white" stroke-width="2.5"/>
<path d="M235 278C254.882 278 271 261.882 271 242C271 222.118 254.882 206 235 206C215.118 206 199 222.118 199 242C199 261.882 215.118 278 235 278Z" fill="#800000" stroke="white" stroke-width="2.5"/>
<path d="M253.178 257.074C244.327 260.616 245.25 259.139 243.146 259.997C242.838 260.122 236.572 256.634 234.197 256.424C231.82 256.213 222.727 258.199 217.872 253.841C213.018 249.481 215.786 240.419 215.786 240.419C215.786 240.419 216.108 228.559 225.162 224.966C232.698 221.974 235.807 223.287 235.807 223.287L246.483 226.579L249.907 229.364C249.907 229.364 255.399 237.812 256.259 238.875C257.118 239.939 263.511 252.939 253.178 257.074Z" stroke="white" stroke-width="2.5"/>
<path d="M82 168C116.242 168 144 140.242 144 106C144 71.7583 116.242 44 82 44C47.7583 44 20 71.7583 20 106C20 140.242 47.7583 168 82 168Z" fill="#008000" stroke="white" stroke-width="2.5"/>
<path d="M59.451 147.428C59.488 147.553 59.525 147.678 59.562 147.805C59.909 147.736 60.294 147.743 60.594 147.586C62.166 146.76 63.709 145.881 65.279 145.049C65.678 144.837 66.127 144.707 66.565 144.58C67.614 144.274 68.751 144.154 69.708 143.672C71.919 142.558 74.097 141.356 76.194 140.041C81.703 136.591 86.347 132.042 91.35 127.949C91.588 127.754 91.795 127.399 91.829 127.097C91.936 126.152 92.533 125.616 93.287 125.225C94.319 124.69 95.359 124.156 96.438 123.731C100.178 122.258 101.724 117.149 98.842 114.335C98.382 113.886 98.455 113.455 98.792 112.95C99.354 112.111 99.897 111.255 100.372 110.365C100.972 109.239 101.125 108.033 100.681 106.809C100.083 105.159 98.793 104.123 97.369 103.24C96.265 102.556 95.131 101.949 93.746 102.527C93.564 102.603 93.237 102.33 92.978 102.218C93.084 101.988 93.132 101.681 93.311 101.543C93.865 101.113 94.442 100.698 95.057 100.363C99.113 98.151 103.129 95.961 106.774 93.005C110.852 89.696 115.417 86.986 119.766 84.01C120.853 83.266 121.963 82.549 122.987 81.725C123.38 81.409 123.714 80.859 123.811 80.364C124.308 77.843 121.949 74.781 118.911 75.657C115.899 76.526 112.965 77.543 110.273 79.199C108.919 80.031 107.48 80.723 106.078 81.475C100.928 84.238 95.601 86.702 91.005 90.406C90.15 91.095 89.183 91.645 88.267 92.259C87.628 92.687 87.195 92.494 86.893 91.825C86.239 90.374 86.299 88.915 86.804 87.44C87.727 84.748 88.483 81.986 89.59 79.373C91.536 74.782 93.708 70.288 95.753 65.739C96.328 64.459 96.921 63.163 97.271 61.813C97.658 60.32 97.2 58.921 95.944 57.953C94.71 57 93.31 57.117 92.057 57.875C91.241 58.37 90.451 59.048 89.903 59.824C85.411 66.177 80.842 72.487 77.673 79.659C76.721 81.815 75.767 83.978 74.668 86.06C74.022 87.287 73.196 88.462 72.256 89.481C71.138 90.693 70.249 91.994 69.52 93.47C68.947 94.631 68.167 95.714 67.349 96.726C66.059 98.322 64.574 99.764 63.321 101.387C58.619 107.476 53.992 113.624 49.293 119.716C48.753 120.416 48.015 121.051 47.235 121.464C44.801 122.753 42.302 123.92 39.831 125.137C39.62 125.241 39.423 125.371 39.22 125.49C39.237 125.594 39.253 125.698 39.27 125.802C39.536 125.783 39.839 125.842 40.062 125.734C42.541 124.531 45 123.284 47.482 122.088C48.479 121.608 49.248 120.921 49.888 120.025C51.028 118.429 52.22 116.87 53.39 115.295C57.959 109.141 62.474 102.943 67.701 97.316C68.739 96.198 69.542 94.982 70.2 93.609C70.721 92.52 71.339 91.394 72.184 90.56C73.677 89.086 74.816 87.43 75.661 85.535C76.135 84.473 76.682 83.441 77.122 82.366C80.337 74.497 85.168 67.589 90.021 60.699C90.639 59.821 91.446 58.957 92.363 58.428C94.517 57.184 96.575 58.34 96.746 60.813C96.792 61.487 96.611 62.23 96.347 62.863C95.733 64.329 95.061 65.777 94.311 67.178C90.812 73.714 88.431 80.696 86.086 87.692C85.566 89.242 85.672 90.784 86.427 92.243C86.948 93.249 87.459 93.436 88.432 92.856C89.614 92.152 90.747 91.359 91.86 90.548C94.537 88.598 97.261 86.756 100.252 85.279C103.872 83.491 107.407 81.523 110.922 79.531C113.532 78.052 116.315 77.092 119.167 76.233C121.366 75.571 123.476 77.833 123.244 79.934C123.188 80.446 122.845 81.066 122.435 81.373C121.016 82.438 119.501 83.375 118.039 84.384C113.978 87.185 109.785 89.818 105.919 92.865C103.174 95.028 100.327 96.922 97.233 98.495C96.278 98.981 95.324 99.474 94.406 100.026C93.781 100.401 93.18 100.842 92.648 101.339C92.427 101.545 92.238 102.064 92.348 102.281C92.534 102.644 92.934 102.951 93.314 103.141C93.543 103.256 93.907 103.069 94.209 103.079C94.802 103.098 95.505 102.97 95.965 103.24C97.113 103.914 98.255 104.667 99.207 105.588C100.515 106.853 100.671 108.455 99.826 110.068C99.277 111.117 98.608 112.104 97.932 113.217C96.863 112.345 95.88 111.538 94.889 110.742C94.768 110.644 94.597 110.607 94.45 110.542C94.434 110.729 94.333 110.995 94.419 111.089C94.764 111.469 95.173 111.79 95.547 112.144C96.584 113.126 97.729 114.022 98.623 115.12C100.311 117.191 99.94 120.293 97.934 122.056C97.778 122.194 97.572 122.398 97.407 122.383C95.826 122.232 94.523 122.824 93.522 123.969C92.67 124.944 91.27 125.529 91.193 127.107C91.183 127.319 90.88 127.542 90.673 127.716C87.984 129.995 85.349 132.346 82.578 134.524C77.458 138.546 72.407 142.636 65.805 144.228C63.559 144.769 61.561 146.332 59.451 147.428Z" stroke="white" stroke-width="2.5"/>
<path d="M59.451 147.428C61.56 146.332 63.558 144.769 65.802 144.229C72.405 142.637 77.455 138.547 82.575 134.525C85.346 132.348 87.98 129.997 90.67 127.717C90.876 127.543 91.18 127.321 91.19 127.108C91.267 125.53 92.668 124.945 93.519 123.97C94.52 122.825 95.823 122.233 97.404 122.384C97.569 122.4 97.775 122.195 97.931 122.057C99.938 120.294 100.309 117.192 98.62 115.121C97.725 114.023 96.581 113.127 95.544 112.145C95.17 111.791 94.761 111.47 94.416 111.09C94.33 110.995 94.432 110.73 94.447 110.543C94.594 110.608 94.765 110.645 94.886 110.743C95.877 111.538 96.86 112.346 97.929 113.218C98.605 112.104 99.274 111.118 99.823 110.069C100.668 108.456 100.511 106.854 99.204 105.589C98.252 104.668 97.11 103.915 95.962 103.241C95.502 102.971 94.799 103.099 94.206 103.08C93.904 103.07 93.541 103.257 93.311 103.142C92.931 102.953 92.531 102.645 92.345 102.282C92.235 102.065 92.424 101.546 92.645 101.34C93.177 100.843 93.778 100.402 94.403 100.027C95.321 99.475 96.275 98.982 97.23 98.496C100.324 96.923 103.17 95.029 105.916 92.866C109.782 89.819 113.976 87.186 118.036 84.385C119.499 83.376 121.014 82.44 122.432 81.374C122.841 81.067 123.185 80.446 123.241 79.935C123.472 77.833 121.363 75.572 119.164 76.234C116.311 77.092 113.529 78.053 110.919 79.532C107.404 81.524 103.869 83.492 100.249 85.28C97.259 86.757 94.534 88.599 91.857 90.549C90.745 91.36 89.611 92.153 88.429 92.857C87.456 93.437 86.945 93.25 86.424 92.244C85.669 90.785 85.564 89.243 86.083 87.693C88.428 80.697 90.809 73.715 94.308 67.179C95.058 65.778 95.73 64.33 96.344 62.864C96.609 62.232 96.789 61.489 96.743 60.814C96.572 58.341 94.514 57.185 92.36 58.429C91.443 58.958 90.636 59.821 90.018 60.7C85.164 67.591 80.333 74.499 77.119 82.367C76.68 83.443 76.132 84.474 75.658 85.536C74.813 87.431 73.675 89.087 72.181 90.561C71.335 91.395 70.718 92.521 70.197 93.61C69.539 94.982 68.736 96.198 67.698 97.317C62.471 102.944 57.956 109.143 53.387 115.296C52.217 116.871 51.025 118.43 49.885 120.026C49.245 120.922 48.476 121.609 47.479 122.089C44.997 123.285 42.538 124.531 40.059 125.735C39.836 125.843 39.533 125.784 39.267 125.803C39.25 125.699 39.234 125.595 39.217 125.491C39.42 125.372 39.617 125.241 39.828 125.138C42.3 123.92 44.798 122.754 47.232 121.465C48.012 121.052 48.75 120.417 49.29 119.717C53.989 113.625 58.616 107.478 63.318 101.388C64.571 99.765 66.056 98.324 67.346 96.727C68.164 95.715 68.944 94.632 69.517 93.471C70.246 91.995 71.135 90.694 72.253 89.482C73.193 88.463 74.019 87.288 74.665 86.061C75.764 83.978 76.718 81.816 77.67 79.66C80.84 72.488 85.408 66.178 89.9 59.825C90.448 59.049 91.238 58.371 92.054 57.876C93.307 57.118 94.706 57.001 95.941 57.954C97.197 58.922 97.655 60.321 97.268 61.814C96.918 63.164 96.326 64.46 95.75 65.74C93.705 70.289 91.533 74.783 89.587 79.374C88.48 81.987 87.724 84.749 86.801 87.441C86.296 88.916 86.236 90.375 86.89 91.826C87.192 92.495 87.625 92.688 88.264 92.26C89.18 91.647 90.147 91.097 91.002 90.407C95.599 86.702 100.925 84.239 106.075 81.476C107.477 80.724 108.917 80.032 110.27 79.2C112.961 77.545 115.896 76.527 118.908 75.658C121.946 74.782 124.305 77.844 123.808 80.365C123.71 80.86 123.376 81.41 122.984 81.726C121.961 82.55 120.85 83.267 119.763 84.011C115.413 86.987 110.849 89.697 106.771 93.006C103.126 95.963 99.11 98.152 95.054 100.364C94.439 100.699 93.862 101.114 93.308 101.544C93.129 101.683 93.081 101.989 92.975 102.219C93.234 102.33 93.561 102.603 93.743 102.528C95.128 101.951 96.262 102.557 97.366 103.241C98.791 104.124 100.081 105.159 100.678 106.81C101.122 108.034 100.969 109.24 100.369 110.366C99.894 111.256 99.35 112.112 98.789 112.951C98.452 113.456 98.379 113.887 98.839 114.336C101.721 117.15 100.175 122.259 96.435 123.732C95.356 124.157 94.316 124.691 93.284 125.226C92.53 125.616 91.933 126.152 91.826 127.098C91.792 127.4 91.585 127.754 91.347 127.95C86.344 132.043 81.7 136.593 76.191 140.042C74.093 141.356 71.916 142.559 69.705 143.673C68.748 144.155 67.611 144.276 66.562 144.581C66.124 144.708 65.675 144.838 65.276 145.05C63.707 145.882 62.164 146.761 60.591 147.587C60.291 147.743 59.905 147.736 59.559 147.806C59.525 147.678 59.488 147.553 59.451 147.428Z" stroke="white" stroke-width="2.5"/>
<path d="M190 204C209.882 204 226 187.882 226 168C226 148.118 209.882 132 190 132C170.118 132 154 148.118 154 168C154 187.882 170.118 204 190 204Z" fill="#008000" stroke="white" stroke-width="2.5"/>
<path d="M215 165.773C214.906 166.003 214.799 166.227 214.722 166.46C213.8 169.237 211.056 170.723 208.187 169.985C206.045 169.434 203.924 168.798 201.765 168.33C199.144 167.761 196.578 168.292 194.056 169.013C193.852 169.072 193.616 169.435 193.604 169.667C193.392 173.252 194.088 176.634 195.999 179.73C196.658 180.797 197.268 181.893 197.933 182.957C199.771 185.899 198.323 190.065 194.744 190.853C194.638 190.876 194.545 190.95 194.445 191C194.051 191 193.658 191 193.265 191C191.623 190.511 190.162 189.781 189.145 188.315C187.341 185.707 187.966 182.468 190.65 180.973C191.122 180.711 191.694 180.591 192.235 180.488C193.232 180.301 193.56 179.872 193.254 178.91C193.027 178.197 192.697 177.516 192.421 176.817C191.563 174.644 190.68 172.48 189.872 170.288C189.652 169.689 189.362 169.469 188.738 169.44C183.72 169.217 178.703 168.985 173.689 168.71C172.267 168.629 170.825 168.52 169.444 168.2C167.24 167.692 165.586 166.178 165 164.317C172.753 164.572 180.457 164.827 188.314 165.083C186.148 157.645 184.031 150.371 181.884 143C183.86 143.236 185.293 144.16 186.297 145.638C186.931 146.569 187.457 147.619 187.802 148.687C189.478 153.906 191.086 159.148 192.69 164.389C192.88 165.011 193.15 165.248 193.833 165.322C196.563 165.618 199.282 166.01 202.005 166.362C202.338 166.405 202.675 166.456 203.009 166.45C203.88 166.44 204.248 166.041 204.15 165.189C203.689 161.127 207.557 158.907 211.03 160.188C212.967 160.903 214.281 162.219 214.817 164.239C214.851 164.368 214.938 164.483 215 164.605C215 164.994 215 165.383 215 165.773ZM209.348 167.872C211.179 167.872 212.555 166.626 212.555 164.97C212.554 163.477 210.988 162.069 209.331 162.072C207.671 162.075 206.288 163.444 206.277 165.092C206.269 166.664 207.604 167.872 209.348 167.872ZM190.616 185.485C190.61 187.097 192.038 188.582 193.604 188.593C195.145 188.606 196.329 187.347 196.324 185.701C196.317 183.99 195.026 182.547 193.493 182.542C191.943 182.537 190.622 183.888 190.616 185.485Z" stroke="white" stroke-width="2.5"/>
<path d="M384 168C418.242 168 446 140.242 446 106C446 71.7583 418.242 44 384 44C349.758 44 322 71.7583 322 106C322 140.242 349.758 168 384 168Z" fill="#000080" stroke="white" stroke-width="2.5"/>
<path d="M413.381 68.885C413.283 68.085 413.366 67.245 413.068 66.576C412.042 64.279 409.994 63.591 407.44 64.625C404.486 65.822 401.855 67.598 399.432 69.616C395.715 72.71 392.153 75.99 388.498 79.16C387.106 80.368 385.642 81.49 384.154 82.696C383.912 80.831 383.061 80.123 381.316 80.467C380.129 80.701 378.995 81.204 377.838 81.592C375.814 82.271 373.834 83.208 371.755 83.571C369.228 84.013 367.436 85.179 366.059 87.291C363.508 91.204 360.502 94.765 357.355 98.21C356.957 98.646 356.642 99.21 356.447 99.771C355.14 103.529 353.838 107.29 352.609 111.074C351.556 114.316 349.899 117.402 349.99 120.959C349.998 121.242 349.61 121.645 349.306 121.807C347.689 122.677 346.035 123.477 344.408 124.33C344.192 124.443 344.058 124.714 343.887 124.911C344.145 124.912 344.448 125.003 344.655 124.9C346.221 124.13 347.749 123.279 349.33 122.544C350.212 122.134 350.633 121.571 350.684 120.587C350.745 119.432 350.775 118.223 351.133 117.143C353.044 111.393 355.05 105.673 357.037 99.948C357.174 99.553 357.356 99.134 357.635 98.834C361.121 95.071 364.304 91.066 367.193 86.83C368.13 85.457 369.353 84.65 371.011 84.403C373.633 84.011 376.11 83.156 378.501 81.996C379.447 81.537 380.516 81.285 381.555 81.071C382.197 80.94 382.957 80.945 383.331 81.685C383.73 82.477 383.487 83.287 382.738 83.923C382.364 84.241 382.009 84.586 381.608 84.865C377.236 87.912 372.821 90.9 368.49 94.005C365.355 96.252 362.326 98.646 359.261 100.99C359.012 101.18 358.852 101.485 358.651 101.736C358.724 101.812 358.798 101.888 358.873 101.964C359.102 101.819 359.349 101.696 359.555 101.524C360.167 101.013 360.723 100.427 361.37 99.969C365.623 96.965 369.834 93.897 374.173 91.023C379.839 87.272 385.02 82.926 390.136 78.487C391.869 76.983 393.613 75.489 395.353 73.992C396.421 73.074 397.53 72.199 398.554 71.234C400.963 68.965 403.705 67.187 406.623 65.67C407.345 65.295 408.159 65.07 408.955 64.868C410.133 64.569 411.119 64.961 411.917 65.869C412.74 66.807 413.054 67.842 412.409 68.984C412.1 69.53 411.727 70.075 411.271 70.499C405.629 75.73 399.723 80.67 394.424 86.276C392.478 88.334 390.177 90.057 388.046 91.941C387.901 92.069 387.817 92.265 387.703 92.43C387.769 92.501 387.836 92.572 387.902 92.642C388.254 92.451 388.656 92.317 388.948 92.059C390.989 90.254 393.126 88.538 395.01 86.579C401.739 79.584 409.066 73.256 416.481 67.021C417.393 66.254 418.472 65.924 419.623 65.895C421.903 65.837 423.466 68.555 422.406 70.814C421.997 71.686 421.381 72.484 420.749 73.223C418.979 75.293 417.165 77.324 415.348 79.351C410.172 85.123 405.126 91.02 399.093 95.959C398.229 96.666 397.557 97.615 396.832 98.483C396.622 98.735 396.54 99.094 396.399 99.404C396.477 99.464 396.556 99.525 396.634 99.585C396.804 99.439 396.993 99.31 397.14 99.144C398.049 98.116 398.817 96.913 399.874 96.073C404.175 92.661 407.783 88.562 411.498 84.573C414.172 81.702 416.705 78.7 419.311 75.766C420.151 74.821 421.169 74.6 422.198 75.09C424.068 75.981 424.874 78.797 423.734 80.516C420.908 84.779 418.088 89.036 414.951 93.093C412.389 96.406 409.726 99.572 406.587 102.347C405.582 103.236 404.626 104.221 403.829 105.297C402.537 107.041 401.387 108.891 400.202 110.713C400.087 110.891 400.149 111.184 400.129 111.423C400.328 111.282 400.572 111.176 400.717 110.992C400.942 110.705 401.097 110.364 401.283 110.048C402.867 107.37 404.757 104.948 406.982 102.754C410.602 99.187 414.122 95.518 417.68 91.888C418.259 91.298 418.772 90.634 419.397 90.098C420.338 89.29 421.679 89.361 422.244 90.241C422.831 91.156 423.322 92.199 422.934 93.278C422.412 94.736 421.812 96.192 421.036 97.527C418.649 101.633 415.427 105.112 412.349 108.686C408.69 112.936 404.87 117.047 402.102 121.989C401.587 122.909 400.866 123.766 400.077 124.471C395.368 128.677 390.675 132.906 385.851 136.981C381.176 140.93 376.177 144.398 370.275 146.357C368.954 146.796 367.717 147.489 366.442 148.064C366.469 148.178 366.498 148.292 366.526 148.405C366.912 148.342 367.329 148.351 367.679 148.202C369.229 147.545 370.72 146.735 372.303 146.179C375.788 144.953 378.869 143.04 381.823 140.882C387.7 136.587 393.094 131.72 398.498 126.86C400.831 124.761 402.707 122.363 404.349 119.709C405.504 117.841 406.848 116.074 408.249 114.379C410.69 111.425 413.249 108.57 415.741 105.659C418.315 102.652 420.818 99.586 422.595 96.017C423.028 95.148 423.368 94.21 423.59 93.266C423.937 91.785 423.028 89.69 421.93 89.16C420.755 88.593 419.42 89.047 418.134 90.452C417.692 90.936 417.253 91.424 416.813 91.91C416.746 91.726 416.792 91.629 416.852 91.541C419.311 87.994 421.763 84.442 424.234 80.903C424.952 79.875 425.169 78.795 424.771 77.597C424.143 75.702 423.104 74.274 420.782 74.195C421.044 73.882 421.264 73.673 421.42 73.424C422.015 72.469 422.781 71.567 423.132 70.527C424.172 67.442 421.699 64.707 418.549 65.455C417.552 65.691 416.608 66.299 415.739 66.885C414.863 67.477 414.111 68.254 413.381 68.885Z" stroke="white" stroke-width="2.5"/>
<path d="M413.381 68.885C414.111 68.254 414.863 67.477 415.739 66.885C416.607 66.299 417.551 65.691 418.549 65.455C421.699 64.707 424.172 67.442 423.132 70.527C422.781 71.568 422.015 72.47 421.42 73.424C421.265 73.674 421.044 73.882 420.782 74.195C423.104 74.274 424.143 75.702 424.771 77.597C425.168 78.795 424.952 79.875 424.234 80.903C421.763 84.442 419.311 87.993 416.852 91.541C416.791 91.628 416.746 91.726 416.813 91.91C417.253 91.424 417.692 90.937 418.134 90.452C419.42 89.047 420.755 88.594 421.93 89.16C423.028 89.69 423.937 91.785 423.59 93.266C423.368 94.21 423.028 95.149 422.595 96.017C420.819 99.586 418.316 102.652 415.741 105.659C413.249 108.571 410.69 111.426 408.249 114.379C406.848 116.074 405.504 117.841 404.349 119.709C402.707 122.363 400.831 124.761 398.498 126.86C393.094 131.72 387.7 136.588 381.823 140.882C378.87 143.04 375.789 144.953 372.303 146.179C370.72 146.736 369.229 147.545 367.679 148.202C367.328 148.351 366.911 148.342 366.526 148.405C366.498 148.292 366.469 148.178 366.442 148.064C367.717 147.489 368.954 146.796 370.275 146.357C376.177 144.398 381.176 140.93 385.851 136.981C390.674 132.906 395.368 128.677 400.077 124.471C400.866 123.766 401.588 122.909 402.102 121.989C404.87 117.048 408.69 112.936 412.349 108.686C415.426 105.112 418.649 101.633 421.036 97.527C421.812 96.192 422.412 94.736 422.934 93.278C423.322 92.199 422.83 91.155 422.244 90.241C421.68 89.362 420.339 89.29 419.397 90.098C418.772 90.634 418.259 91.297 417.68 91.888C414.121 95.518 410.602 99.186 406.982 102.754C404.756 104.948 402.867 107.37 401.283 110.048C401.096 110.364 400.941 110.705 400.717 110.992C400.572 111.176 400.328 111.282 400.129 111.423C400.15 111.184 400.087 110.891 400.202 110.713C401.387 108.891 402.537 107.041 403.829 105.297C404.626 104.221 405.582 103.236 406.587 102.347C409.727 99.572 412.39 96.406 414.951 93.093C418.088 89.035 420.908 84.779 423.734 80.516C424.874 78.797 424.068 75.981 422.198 75.09C421.17 74.6 420.151 74.82 419.311 75.766C416.705 78.7 414.171 81.702 411.498 84.573C407.783 88.562 404.175 92.66 399.874 96.073C398.816 96.912 398.049 98.115 397.14 99.144C396.994 99.31 396.804 99.439 396.634 99.585C396.556 99.524 396.477 99.464 396.399 99.404C396.54 99.094 396.622 98.735 396.832 98.483C397.557 97.615 398.228 96.666 399.093 95.959C405.126 91.02 410.172 85.123 415.348 79.351C417.165 77.324 418.98 75.292 420.749 73.223C421.381 72.485 421.997 71.686 422.406 70.814C423.466 68.555 421.903 65.837 419.623 65.895C418.473 65.924 417.394 66.255 416.481 67.021C409.066 73.256 401.74 79.584 395.01 86.579C393.126 88.538 390.989 90.254 388.948 92.059C388.656 92.317 388.254 92.451 387.902 92.642C387.836 92.571 387.769 92.5 387.703 92.43C387.816 92.265 387.901 92.07 388.046 91.941C390.177 90.057 392.478 88.334 394.424 86.276C399.723 80.67 405.629 75.73 411.271 70.499C411.727 70.076 412.1 69.531 412.409 68.984C413.054 67.841 412.74 66.807 411.917 65.869C411.119 64.96 410.133 64.569 408.955 64.868C408.159 65.07 407.345 65.294 406.623 65.67C403.705 67.187 400.963 68.965 398.554 71.234C397.53 72.199 396.421 73.074 395.353 73.992C393.613 75.489 391.87 76.983 390.136 78.487C385.02 82.926 379.839 87.272 374.173 91.023C369.834 93.897 365.623 96.965 361.37 99.969C360.723 100.427 360.167 101.013 359.555 101.524C359.349 101.696 359.102 101.819 358.873 101.964C358.799 101.888 358.725 101.813 358.651 101.736C358.852 101.485 359.012 101.18 359.261 100.99C362.325 98.646 365.355 96.252 368.49 94.005C372.821 90.9 377.236 87.912 381.608 84.865C382.009 84.586 382.364 84.24 382.738 83.923C383.487 83.286 383.73 82.476 383.331 81.685C382.957 80.945 382.196 80.939 381.555 81.071C380.516 81.284 379.448 81.536 378.501 81.996C376.109 83.156 373.633 84.011 371.011 84.403C369.353 84.651 368.129 85.457 367.193 86.83C364.304 91.066 361.122 95.071 357.635 98.834C357.357 99.134 357.174 99.553 357.037 99.948C355.05 105.673 353.044 111.393 351.133 117.143C350.775 118.223 350.744 119.432 350.684 120.587C350.633 121.571 350.212 122.134 349.33 122.544C347.749 123.279 346.222 124.131 344.655 124.9C344.448 125.003 344.145 124.912 343.887 124.911C344.058 124.714 344.192 124.443 344.408 124.33C346.035 123.477 347.689 122.677 349.306 121.807C349.61 121.644 349.997 121.242 349.99 120.959C349.899 117.402 351.556 114.316 352.609 111.074C353.838 107.29 355.14 103.529 356.447 99.771C356.642 99.21 356.957 98.646 357.355 98.21C360.502 94.764 363.508 91.203 366.059 87.291C367.436 85.18 369.228 84.013 371.755 83.571C373.834 83.208 375.814 82.271 377.838 81.592C378.994 81.204 380.129 80.701 381.316 80.467C383.061 80.123 383.912 80.831 384.154 82.696C385.641 81.49 387.106 80.367 388.498 79.16C392.152 75.99 395.715 72.71 399.432 69.616C401.855 67.598 404.486 65.822 407.44 64.625C409.994 63.591 412.042 64.279 413.068 66.576C413.366 67.245 413.283 68.084 413.381 68.885Z" stroke="white" stroke-width="2.5"/>
<path d="M277 204C296.882 204 313 187.882 313 168C313 148.118 296.882 132 277 132C257.118 132 241 148.118 241 168C241 187.882 257.118 204 277 204Z" fill="#000080" stroke="white" stroke-width="2.5"/>
<path d="M281.198 149.001C281.198 153.779 281.198 158.526 281.198 163.343C285.119 162.762 289.04 162.182 293 161.594C293 169.756 293 177.861 293 186C283.661 186 274.355 186 265 186C265 173.684 265 161.368 265 149C270.389 149.001 275.79 149.001 281.198 149.001Z" stroke="white" stroke-width="2.5"/>
<path d="M293 161L281 149" stroke="white" stroke-width="2.5"/>
<path d="M193.028 36.6364C192.9 35.5568 192.382 34.7188 191.473 34.1222C190.563 33.5256 189.448 33.2273 188.127 33.2273C187.161 33.2273 186.316 33.3835 185.592 33.696C184.875 34.0085 184.313 34.4382 183.909 34.9851C183.511 35.532 183.312 36.1534 183.312 36.8494C183.312 37.4318 183.451 37.9325 183.728 38.3516C184.012 38.7635 184.374 39.108 184.814 39.3849C185.255 39.6548 185.716 39.8786 186.199 40.0561C186.682 40.2266 187.126 40.3651 187.531 40.4716L189.747 41.0682C190.315 41.2173 190.947 41.4233 191.643 41.6861C192.346 41.9489 193.017 42.3075 193.657 42.7621C194.303 43.2095 194.835 43.7848 195.255 44.4879C195.674 45.1911 195.883 46.054 195.883 47.0767C195.883 48.2557 195.574 49.321 194.956 50.2727C194.345 51.2244 193.451 51.9808 192.272 52.5419C191.1 53.103 189.676 53.3835 188 53.3835C186.437 53.3835 185.084 53.1314 183.941 52.6271C182.804 52.1229 181.909 51.4197 181.256 50.5178C180.61 49.6158 180.244 48.5682 180.159 47.375H182.886C182.957 48.1989 183.234 48.8807 183.717 49.4205C184.207 49.9531 184.825 50.3509 185.571 50.6136C186.323 50.8693 187.133 50.9972 188 50.9972C189.008 50.9972 189.914 50.8338 190.716 50.5071C191.519 50.1733 192.154 49.7116 192.623 49.1222C193.092 48.5256 193.326 47.8295 193.326 47.0341C193.326 46.3097 193.124 45.7202 192.719 45.2656C192.314 44.8111 191.782 44.4418 191.121 44.1577C190.46 43.8736 189.747 43.625 188.98 43.4119L186.295 42.6449C184.59 42.1548 183.241 41.4553 182.247 40.5462C181.252 39.6371 180.755 38.4474 180.755 36.9773C180.755 35.7557 181.085 34.6903 181.746 33.7812C182.414 32.8651 183.309 32.1548 184.431 31.6506C185.56 31.1392 186.821 30.8835 188.213 30.8835C189.619 30.8835 190.869 31.1357 191.963 31.6399C193.056 32.1371 193.923 32.8189 194.562 33.6854C195.208 34.5518 195.549 35.5355 195.585 36.6364H193.028ZM206.534 53.3409C205 53.3409 203.679 52.9787 202.571 52.2543C201.463 51.5298 200.611 50.532 200.014 49.2607C199.417 47.9893 199.119 46.5369 199.119 44.9034C199.119 43.2415 199.424 41.7749 200.035 40.5036C200.653 39.2251 201.513 38.2273 202.613 37.5099C203.721 36.7855 205.014 36.4233 206.491 36.4233C207.642 36.4233 208.679 36.6364 209.602 37.0625C210.525 37.4886 211.282 38.0852 211.871 38.8523C212.461 39.6193 212.826 40.5142 212.968 41.5369H210.454C210.263 40.7912 209.836 40.1307 209.176 39.5554C208.522 38.973 207.642 38.6818 206.534 38.6818C205.554 38.6818 204.694 38.9375 203.956 39.4489C203.224 39.9531 202.652 40.6669 202.241 41.5902C201.836 42.5064 201.633 43.5824 201.633 44.8182C201.633 46.0824 201.832 47.1832 202.23 48.1207C202.635 49.0582 203.203 49.7862 203.934 50.3047C204.673 50.8232 205.54 51.0824 206.534 51.0824C207.187 51.0824 207.78 50.9688 208.313 50.7415C208.846 50.5142 209.297 50.1875 209.666 49.7614C210.035 49.3352 210.298 48.8239 210.454 48.2273H212.968C212.826 49.1932 212.475 50.0632 211.914 50.8374C211.36 51.6044 210.625 52.2152 209.709 52.6697C208.799 53.1172 207.741 53.3409 206.534 53.3409ZM216.644 53V36.6364H219.158V53H216.644ZM217.922 33.9091C217.432 33.9091 217.01 33.7422 216.655 33.4084C216.307 33.0746 216.133 32.6733 216.133 32.2045C216.133 31.7358 216.307 31.3345 216.655 31.0007C217.01 30.6669 217.432 30.5 217.922 30.5C218.412 30.5 218.831 30.6669 219.179 31.0007C219.535 31.3345 219.712 31.7358 219.712 32.2045C219.712 32.6733 219.535 33.0746 219.179 33.4084C218.831 33.7422 218.412 33.9091 217.922 33.9091ZM235.354 40.3011L233.095 40.9403C232.953 40.5639 232.744 40.1982 232.467 39.843C232.197 39.4808 231.828 39.1825 231.359 38.9482C230.89 38.7138 230.29 38.5966 229.559 38.5966C228.557 38.5966 227.723 38.8274 227.055 39.2891C226.394 39.7436 226.064 40.3224 226.064 41.0256C226.064 41.6506 226.291 42.1442 226.746 42.5064C227.201 42.8686 227.911 43.1705 228.877 43.4119L231.306 44.0085C232.769 44.3636 233.859 44.907 234.576 45.6385C235.294 46.3629 235.652 47.2969 235.652 48.4403C235.652 49.3778 235.382 50.2159 234.843 50.9545C234.31 51.6932 233.564 52.2756 232.605 52.7017C231.647 53.1278 230.532 53.3409 229.26 53.3409C227.591 53.3409 226.21 52.9787 225.116 52.2543C224.022 51.5298 223.33 50.4716 223.039 49.0795L225.425 48.483C225.652 49.3636 226.082 50.0241 226.714 50.4645C227.353 50.9048 228.188 51.125 229.218 51.125C230.389 51.125 231.32 50.8764 232.009 50.3793C232.705 49.875 233.053 49.2713 233.053 48.5682C233.053 48 232.854 47.5241 232.456 47.1406C232.059 46.75 231.448 46.4588 230.624 46.267L227.897 45.6278C226.398 45.2727 225.297 44.7223 224.594 43.9766C223.898 43.2237 223.55 42.2827 223.55 41.1534C223.55 40.2301 223.809 39.4134 224.328 38.7031C224.853 37.9929 225.567 37.4354 226.469 37.0305C227.378 36.6257 228.408 36.4233 229.559 36.4233C231.178 36.4233 232.449 36.7784 233.372 37.4886C234.303 38.1989 234.963 39.1364 235.354 40.3011ZM251.028 40.3011L248.769 40.9403C248.627 40.5639 248.418 40.1982 248.141 39.843C247.871 39.4808 247.502 39.1825 247.033 38.9482C246.564 38.7138 245.964 38.5966 245.232 38.5966C244.231 38.5966 243.396 38.8274 242.729 39.2891C242.068 39.7436 241.738 40.3224 241.738 41.0256C241.738 41.6506 241.965 42.1442 242.42 42.5064C242.874 42.8686 243.585 43.1705 244.551 43.4119L246.979 44.0085C248.443 44.3636 249.533 44.907 250.25 45.6385C250.967 46.3629 251.326 47.2969 251.326 48.4403C251.326 49.3778 251.056 50.2159 250.516 50.9545C249.984 51.6932 249.238 52.2756 248.279 52.7017C247.32 53.1278 246.205 53.3409 244.934 53.3409C243.265 53.3409 241.884 52.9787 240.79 52.2543C239.696 51.5298 239.004 50.4716 238.712 49.0795L241.099 48.483C241.326 49.3636 241.756 50.0241 242.388 50.4645C243.027 50.9048 243.862 51.125 244.891 51.125C246.063 51.125 246.994 50.8764 247.683 50.3793C248.379 49.875 248.727 49.2713 248.727 48.5682C248.727 48 248.528 47.5241 248.13 47.1406C247.732 46.75 247.122 46.4588 246.298 46.267L243.57 45.6278C242.072 45.2727 240.971 44.7223 240.268 43.9766C239.572 43.2237 239.224 42.2827 239.224 41.1534C239.224 40.2301 239.483 39.4134 240.002 38.7031C240.527 37.9929 241.241 37.4354 242.143 37.0305C243.052 36.6257 244.082 36.4233 245.232 36.4233C246.852 36.4233 248.123 36.7784 249.046 37.4886C249.977 38.1989 250.637 39.1364 251.028 40.3011ZM261.758 53.3409C260.281 53.3409 258.985 52.9893 257.87 52.2862C256.762 51.5831 255.896 50.5994 255.271 49.3352C254.653 48.071 254.344 46.5937 254.344 44.9034C254.344 43.1989 254.653 41.7109 255.271 40.4396C255.896 39.1683 256.762 38.1811 257.87 37.478C258.985 36.7749 260.281 36.4233 261.758 36.4233C263.236 36.4233 264.528 36.7749 265.636 37.478C266.751 38.1811 267.618 39.1683 268.236 40.4396C268.861 41.7109 269.173 43.1989 269.173 44.9034C269.173 46.5937 268.861 48.071 268.236 49.3352C267.618 50.5994 266.751 51.5831 265.636 52.2862C264.528 52.9893 263.236 53.3409 261.758 53.3409ZM261.758 51.0824C262.881 51.0824 263.804 50.7947 264.528 50.2195C265.253 49.6442 265.789 48.8878 266.137 47.9503C266.485 47.0128 266.659 45.9972 266.659 44.9034C266.659 43.8097 266.485 42.7905 266.137 41.8459C265.789 40.9013 265.253 40.1378 264.528 39.5554C263.804 38.973 262.881 38.6818 261.758 38.6818C260.636 38.6818 259.713 38.973 258.989 39.5554C258.264 40.1378 257.728 40.9013 257.38 41.8459C257.032 42.7905 256.858 43.8097 256.858 44.9034C256.858 45.9972 257.032 47.0128 257.38 47.9503C257.728 48.8878 258.264 49.6442 258.989 50.2195C259.713 50.7947 260.636 51.0824 261.758 51.0824ZM273.011 53V36.6364H275.44V39.108H275.611C275.909 38.2983 276.449 37.6413 277.23 37.1371C278.011 36.6328 278.892 36.3807 279.872 36.3807C280.057 36.3807 280.287 36.3842 280.564 36.3913C280.841 36.3984 281.051 36.4091 281.193 36.4233V38.9801C281.108 38.9588 280.912 38.9268 280.607 38.8842C280.309 38.8345 279.993 38.8097 279.659 38.8097C278.863 38.8097 278.153 38.9766 277.528 39.3104C276.91 39.6371 276.42 40.0916 276.058 40.674C275.703 41.2493 275.525 41.9062 275.525 42.6449V53H273.011ZM295.764 40.3011L293.506 40.9403C293.364 40.5639 293.154 40.1982 292.877 39.843C292.607 39.4808 292.238 39.1825 291.769 38.9482C291.3 38.7138 290.7 38.5966 289.969 38.5966C288.967 38.5966 288.133 38.8274 287.465 39.2891C286.805 39.7436 286.474 40.3224 286.474 41.0256C286.474 41.6506 286.702 42.1442 287.156 42.5064C287.611 42.8686 288.321 43.1705 289.287 43.4119L291.716 44.0085C293.179 44.3636 294.269 44.907 294.986 45.6385C295.704 46.3629 296.062 47.2969 296.062 48.4403C296.062 49.3778 295.793 50.2159 295.253 50.9545C294.72 51.6932 293.974 52.2756 293.016 52.7017C292.057 53.1278 290.942 53.3409 289.67 53.3409C288.001 53.3409 286.62 52.9787 285.526 52.2543C284.432 51.5298 283.74 50.4716 283.449 49.0795L285.835 48.483C286.062 49.3636 286.492 50.0241 287.124 50.4645C287.763 50.9048 288.598 51.125 289.628 51.125C290.8 51.125 291.73 50.8764 292.419 50.3793C293.115 49.875 293.463 49.2713 293.463 48.5682C293.463 48 293.264 47.5241 292.866 47.1406C292.469 46.75 291.858 46.4588 291.034 46.267L288.307 45.6278C286.808 45.2727 285.707 44.7223 285.004 43.9766C284.308 43.2237 283.96 42.2827 283.96 41.1534C283.96 40.2301 284.219 39.4134 284.738 38.7031C285.263 37.9929 285.977 37.4354 286.879 37.0305C287.788 36.6257 288.818 36.4233 289.969 36.4233C291.588 36.4233 292.859 36.7784 293.783 37.4886C294.713 38.1989 295.373 39.1364 295.764 40.3011Z" fill="white"/>
<path d="M188.644 79V65.9091H190.152V70.7415H190.28C190.391 70.571 190.544 70.3537 190.74 70.0895C190.941 69.821 191.226 69.5824 191.597 69.3736C191.972 69.1605 192.479 69.054 193.118 69.054C193.945 69.054 194.674 69.2607 195.304 69.674C195.935 70.0874 196.427 70.6733 196.781 71.4318C197.135 72.1903 197.311 73.0852 197.311 74.1165C197.311 75.1562 197.135 76.0575 196.781 76.8203C196.427 77.5788 195.937 78.1669 195.311 78.5845C194.684 78.9979 193.962 79.2045 193.144 79.2045C192.513 79.2045 192.008 79.1001 191.629 78.8913C191.25 78.6783 190.958 78.4375 190.753 78.169C190.549 77.8963 190.391 77.6705 190.28 77.4915H190.101V79H188.644ZM190.127 74.0909C190.127 74.8324 190.235 75.4865 190.453 76.0533C190.67 76.6158 190.988 77.0568 191.405 77.3764C191.823 77.6918 192.334 77.8494 192.939 77.8494C193.57 77.8494 194.096 77.6832 194.518 77.3509C194.944 77.0142 195.264 76.5625 195.477 75.9957C195.694 75.4247 195.803 74.7898 195.803 74.0909C195.803 73.4006 195.696 72.7784 195.483 72.2244C195.275 71.6662 194.957 71.2251 194.531 70.9013C194.109 70.5732 193.578 70.4091 192.939 70.4091C192.326 70.4091 191.81 70.5646 191.392 70.8757C190.975 71.1825 190.659 71.6129 190.446 72.1669C190.233 72.7166 190.127 73.358 190.127 74.0909ZM203.735 79.2045C202.789 79.2045 201.973 78.9957 201.287 78.5781C200.605 78.1562 200.079 77.5682 199.708 76.8139C199.342 76.0554 199.159 75.1733 199.159 74.1676C199.159 73.1619 199.342 72.2756 199.708 71.5085C200.079 70.7372 200.595 70.1364 201.255 69.706C201.92 69.2713 202.696 69.054 203.582 69.054C204.093 69.054 204.598 69.1392 205.097 69.3097C205.596 69.4801 206.049 69.7571 206.458 70.1406C206.868 70.5199 207.194 71.0227 207.436 71.6491C207.679 72.2756 207.801 73.0469 207.801 73.9631V74.6023H200.233V73.2983H206.267C206.267 72.7443 206.156 72.25 205.934 71.8153C205.717 71.3807 205.406 71.0376 205.001 70.7862C204.6 70.5348 204.127 70.4091 203.582 70.4091C202.981 70.4091 202.461 70.5582 202.022 70.8565C201.588 71.1506 201.253 71.5341 201.019 72.0071C200.784 72.4801 200.667 72.9872 200.667 73.5284V74.3977C200.667 75.1392 200.795 75.7678 201.051 76.2834C201.311 76.7947 201.671 77.1847 202.131 77.4531C202.591 77.7173 203.126 77.8494 203.735 77.8494C204.132 77.8494 204.49 77.794 204.809 77.6832C205.133 77.5682 205.412 77.3977 205.647 77.1719C205.881 76.9418 206.062 76.6562 206.19 76.3153L207.647 76.7244C207.494 77.2188 207.236 77.6534 206.874 78.0284C206.512 78.3991 206.064 78.6889 205.532 78.8977C204.999 79.1023 204.4 79.2045 203.735 79.2045ZM212.985 79.2301C212.363 79.2301 211.798 79.1129 211.291 78.8786C210.784 78.6399 210.381 78.2969 210.083 77.8494C209.784 77.3977 209.635 76.8523 209.635 76.2131C209.635 75.6506 209.746 75.1946 209.968 74.8452C210.189 74.4915 210.485 74.2145 210.856 74.0142C211.227 73.8139 211.636 73.6648 212.083 73.5668C212.535 73.4645 212.989 73.3835 213.445 73.3239C214.042 73.2472 214.525 73.1896 214.896 73.1513C215.271 73.1087 215.544 73.0384 215.714 72.9403C215.889 72.8423 215.976 72.6719 215.976 72.429V72.3778C215.976 71.7472 215.804 71.2571 215.458 70.9077C215.118 70.5582 214.6 70.3835 213.905 70.3835C213.185 70.3835 212.62 70.5412 212.211 70.8565C211.802 71.1719 211.515 71.5085 211.348 71.8665L209.917 71.3551C210.172 70.7585 210.513 70.294 210.939 69.9616C211.37 69.625 211.838 69.3906 212.346 69.2585C212.857 69.1222 213.36 69.054 213.854 69.054C214.169 69.054 214.532 69.0923 214.941 69.169C215.354 69.2415 215.752 69.3928 216.136 69.6229C216.524 69.853 216.846 70.2003 217.101 70.6648C217.357 71.1293 217.485 71.7514 217.485 72.5312V79H215.976V77.6705H215.9C215.797 77.8835 215.627 78.1115 215.388 78.3544C215.15 78.5973 214.832 78.804 214.436 78.9744C214.039 79.1449 213.556 79.2301 212.985 79.2301ZM213.215 77.875C213.811 77.875 214.314 77.7578 214.723 77.5234C215.137 77.2891 215.448 76.9865 215.657 76.6158C215.87 76.245 215.976 75.8551 215.976 75.446V74.0653C215.912 74.142 215.772 74.2124 215.554 74.2763C215.341 74.3359 215.094 74.3892 214.813 74.4361C214.536 74.4787 214.265 74.517 214.001 74.5511C213.741 74.581 213.53 74.6065 213.368 74.6278C212.976 74.679 212.61 74.7621 212.269 74.8771C211.932 74.9879 211.659 75.1562 211.451 75.3821C211.246 75.6037 211.144 75.9062 211.144 76.2898C211.144 76.8139 211.338 77.2102 211.725 77.4787C212.118 77.7429 212.614 77.875 213.215 77.875ZM224.508 69.1818V70.4602H219.42V69.1818H224.508ZM220.903 66.8295H222.411V76.1875C222.411 76.6136 222.473 76.9332 222.597 77.1463C222.725 77.3551 222.887 77.4957 223.083 77.5682C223.283 77.6364 223.494 77.6705 223.715 77.6705C223.882 77.6705 224.018 77.6619 224.124 77.6449C224.231 77.6236 224.316 77.6065 224.38 77.5938L224.687 78.9489C224.585 78.9872 224.442 79.0256 224.259 79.0639C224.075 79.1065 223.843 79.1278 223.562 79.1278C223.136 79.1278 222.718 79.0362 222.309 78.853C221.904 78.6697 221.568 78.3906 221.299 78.0156C221.035 77.6406 220.903 77.1676 220.903 76.5966V66.8295ZM233.556 71.3807L232.201 71.7642C232.116 71.5384 231.99 71.3189 231.824 71.1058C231.662 70.8885 231.44 70.7095 231.159 70.5689C230.878 70.4283 230.518 70.358 230.079 70.358C229.478 70.358 228.977 70.4964 228.577 70.7734C228.18 71.0462 227.982 71.3935 227.982 71.8153C227.982 72.1903 228.118 72.4865 228.391 72.7038C228.664 72.9212 229.09 73.1023 229.67 73.2472L231.127 73.6051C232.005 73.8182 232.659 74.1442 233.089 74.5831C233.52 75.0178 233.735 75.5781 233.735 76.2642C233.735 76.8267 233.573 77.3295 233.249 77.7727C232.93 78.2159 232.482 78.5653 231.907 78.821C231.331 79.0767 230.662 79.2045 229.9 79.2045C228.898 79.2045 228.069 78.9872 227.413 78.5526C226.757 78.1179 226.341 77.483 226.167 76.6477L227.599 76.2898C227.735 76.8182 227.993 77.2145 228.372 77.4787C228.756 77.7429 229.256 77.875 229.874 77.875C230.577 77.875 231.135 77.7259 231.549 77.4276C231.966 77.125 232.175 76.7628 232.175 76.3409C232.175 76 232.056 75.7145 231.817 75.4844C231.579 75.25 231.212 75.0753 230.718 74.9602L229.081 74.5767C228.182 74.3636 227.522 74.0334 227.1 73.5859C226.682 73.1342 226.474 72.5696 226.474 71.892C226.474 71.3381 226.629 70.848 226.94 70.4219C227.256 69.9957 227.684 69.6612 228.225 69.4183C228.77 69.1754 229.388 69.054 230.079 69.054C231.05 69.054 231.813 69.267 232.367 69.6932C232.925 70.1193 233.322 70.6818 233.556 71.3807ZM241.068 82.6818V69.1818H242.526V70.7415H242.705C242.815 70.571 242.969 70.3537 243.165 70.0895C243.365 69.821 243.651 69.5824 244.021 69.3736C244.396 69.1605 244.903 69.054 245.543 69.054C246.369 69.054 247.098 69.2607 247.729 69.674C248.359 70.0874 248.852 70.6733 249.205 71.4318C249.559 72.1903 249.736 73.0852 249.736 74.1165C249.736 75.1562 249.559 76.0575 249.205 76.8203C248.852 77.5788 248.362 78.1669 247.735 78.5845C247.109 78.9979 246.386 79.2045 245.568 79.2045C244.938 79.2045 244.433 79.1001 244.053 78.8913C243.674 78.6783 243.382 78.4375 243.178 78.169C242.973 77.8963 242.815 77.6705 242.705 77.4915H242.577V82.6818H241.068ZM242.551 74.0909C242.551 74.8324 242.66 75.4865 242.877 76.0533C243.094 76.6158 243.412 77.0568 243.83 77.3764C244.247 77.6918 244.759 77.8494 245.364 77.8494C245.994 77.8494 246.521 77.6832 246.942 77.3509C247.369 77.0142 247.688 76.5625 247.901 75.9957C248.119 75.4247 248.227 74.7898 248.227 74.0909C248.227 73.4006 248.121 72.7784 247.908 72.2244C247.699 71.6662 247.381 71.2251 246.955 70.9013C246.533 70.5732 246.003 70.4091 245.364 70.4091C244.75 70.4091 244.234 70.5646 243.817 70.8757C243.399 71.1825 243.084 71.6129 242.871 72.1669C242.658 72.7166 242.551 73.358 242.551 74.0909ZM254.926 79.2301C254.304 79.2301 253.739 79.1129 253.232 78.8786C252.725 78.6399 252.322 78.2969 252.024 77.8494C251.726 77.3977 251.577 76.8523 251.577 76.2131C251.577 75.6506 251.688 75.1946 251.909 74.8452C252.131 74.4915 252.427 74.2145 252.798 74.0142C253.168 73.8139 253.577 73.6648 254.025 73.5668C254.477 73.4645 254.93 73.3835 255.386 73.3239C255.983 73.2472 256.467 73.1896 256.837 73.1513C257.212 73.1087 257.485 73.0384 257.656 72.9403C257.83 72.8423 257.918 72.6719 257.918 72.429V72.3778C257.918 71.7472 257.745 71.2571 257.4 70.9077C257.059 70.5582 256.541 70.3835 255.847 70.3835C255.126 70.3835 254.562 70.5412 254.153 70.8565C253.744 71.1719 253.456 71.5085 253.29 71.8665L251.858 71.3551C252.114 70.7585 252.455 70.294 252.881 69.9616C253.311 69.625 253.78 69.3906 254.287 69.2585C254.798 69.1222 255.301 69.054 255.795 69.054C256.111 69.054 256.473 69.0923 256.882 69.169C257.295 69.2415 257.694 69.3928 258.077 69.6229C258.465 69.853 258.787 70.2003 259.043 70.6648C259.298 71.1293 259.426 71.7514 259.426 72.5312V79H257.918V77.6705H257.841C257.739 77.8835 257.568 78.1115 257.33 78.3544C257.091 78.5973 256.773 78.804 256.377 78.9744C255.981 79.1449 255.497 79.2301 254.926 79.2301ZM255.156 77.875C255.753 77.875 256.256 77.7578 256.665 77.5234C257.078 77.2891 257.389 76.9865 257.598 76.6158C257.811 76.245 257.918 75.8551 257.918 75.446V74.0653C257.854 74.142 257.713 74.2124 257.496 74.2763C257.283 74.3359 257.036 74.3892 256.754 74.4361C256.477 74.4787 256.207 74.517 255.942 74.5511C255.683 74.581 255.472 74.6065 255.31 74.6278C254.918 74.679 254.551 74.7621 254.21 74.8771C253.874 74.9879 253.601 75.1562 253.392 75.3821C253.188 75.6037 253.085 75.9062 253.085 76.2898C253.085 76.8139 253.279 77.2102 253.667 77.4787C254.059 77.7429 254.555 77.875 255.156 77.875ZM262.18 82.6818V69.1818H263.637V70.7415H263.816C263.927 70.571 264.08 70.3537 264.276 70.0895C264.476 69.821 264.762 69.5824 265.133 69.3736C265.508 69.1605 266.015 69.054 266.654 69.054C267.481 69.054 268.209 69.2607 268.84 69.674C269.471 70.0874 269.963 70.6733 270.317 71.4318C270.67 72.1903 270.847 73.0852 270.847 74.1165C270.847 75.1562 270.67 76.0575 270.317 76.8203C269.963 77.5788 269.473 78.1669 268.846 78.5845C268.22 78.9979 267.498 79.2045 266.68 79.2045C266.049 79.2045 265.544 79.1001 265.165 78.8913C264.785 78.6783 264.493 78.4375 264.289 78.169C264.084 77.8963 263.927 77.6705 263.816 77.4915H263.688V82.6818H262.18ZM263.662 74.0909C263.662 74.8324 263.771 75.4865 263.988 76.0533C264.206 76.6158 264.523 77.0568 264.941 77.3764C265.358 77.6918 265.87 77.8494 266.475 77.8494C267.106 77.8494 267.632 77.6832 268.054 77.3509C268.48 77.0142 268.8 76.5625 269.013 75.9957C269.23 75.4247 269.339 74.7898 269.339 74.0909C269.339 73.4006 269.232 72.7784 269.019 72.2244C268.81 71.6662 268.493 71.2251 268.067 70.9013C267.645 70.5732 267.114 70.4091 266.475 70.4091C265.861 70.4091 265.346 70.5646 264.928 70.8757C264.51 71.1825 264.195 71.6129 263.982 72.1669C263.769 72.7166 263.662 73.358 263.662 74.0909ZM277.265 79.2045C276.319 79.2045 275.503 78.9957 274.817 78.5781C274.135 78.1562 273.608 77.5682 273.238 76.8139C272.871 76.0554 272.688 75.1733 272.688 74.1676C272.688 73.1619 272.871 72.2756 273.238 71.5085C273.608 70.7372 274.124 70.1364 274.785 69.706C275.449 69.2713 276.225 69.054 277.111 69.054C277.623 69.054 278.128 69.1392 278.626 69.3097C279.125 69.4801 279.579 69.7571 279.988 70.1406C280.397 70.5199 280.723 71.0227 280.966 71.6491C281.209 72.2756 281.33 73.0469 281.33 73.9631V74.6023H273.762V73.2983H279.796C279.796 72.7443 279.685 72.25 279.464 71.8153C279.246 71.3807 278.935 71.0376 278.53 70.7862C278.13 70.5348 277.657 70.4091 277.111 70.4091C276.51 70.4091 275.991 70.5582 275.552 70.8565C275.117 71.1506 274.782 71.5341 274.548 72.0071C274.314 72.4801 274.197 72.9872 274.197 73.5284V74.3977C274.197 75.1392 274.324 75.7678 274.58 76.2834C274.84 76.7947 275.2 77.1847 275.66 77.4531C276.121 77.7173 276.655 77.8494 277.265 77.8494C277.661 77.8494 278.019 77.794 278.339 77.6832C278.662 77.5682 278.942 77.3977 279.176 77.1719C279.41 76.9418 279.591 76.6562 279.719 76.3153L281.177 76.7244C281.023 77.2188 280.765 77.6534 280.403 78.0284C280.041 78.3991 279.594 78.6889 279.061 78.8977C278.528 79.1023 277.93 79.2045 277.265 79.2045ZM283.625 79V69.1818H285.082V70.6648H285.184C285.363 70.179 285.687 69.7848 286.156 69.4822C286.625 69.1797 287.153 69.0284 287.741 69.0284C287.852 69.0284 287.991 69.0305 288.157 69.0348C288.323 69.0391 288.449 69.0455 288.534 69.054V70.5881C288.483 70.5753 288.366 70.5561 288.182 70.5305C288.003 70.5007 287.814 70.4858 287.613 70.4858C287.136 70.4858 286.71 70.5859 286.335 70.7862C285.964 70.9822 285.67 71.255 285.453 71.6044C285.24 71.9496 285.133 72.3437 285.133 72.7869V79H283.625Z" fill="white"/>
<path d="M325.995 284.588L307.1 273.679L310.786 267.294C311.642 265.812 312.609 264.755 313.688 264.122C314.763 263.481 315.885 263.193 317.052 263.26C318.219 263.327 319.359 263.682 320.472 264.324C321.585 264.967 322.466 265.779 323.113 266.76C323.764 267.734 324.089 268.848 324.087 270.102C324.079 271.352 323.65 272.712 322.802 274.182L320.159 278.758L318.13 277.586L320.729 273.084C321.315 272.069 321.61 271.153 321.615 270.335C321.619 269.518 321.403 268.798 320.966 268.177C320.527 267.546 319.929 267.012 319.172 266.576C318.416 266.139 317.658 265.89 316.898 265.828C316.141 265.76 315.415 265.94 314.718 266.366C314.015 266.788 313.366 267.513 312.773 268.54L310.451 272.562L327.316 282.3L325.995 284.588ZM338.086 264.413C337.568 265.311 336.928 266.028 336.167 266.565C335.4 267.098 334.569 267.393 333.675 267.451C332.774 267.505 331.863 267.266 330.94 266.733C330.128 266.264 329.563 265.724 329.243 265.113C328.917 264.499 328.764 263.841 328.784 263.139C328.804 262.436 328.929 261.722 329.161 260.994C329.39 260.257 329.651 259.534 329.945 258.827C330.331 257.902 330.651 257.156 330.905 256.588C331.156 256.012 331.282 255.559 331.282 255.232C331.286 254.898 331.113 254.63 330.762 254.427L330.689 254.385C329.778 253.859 328.927 253.7 328.135 253.907C327.347 254.108 326.663 254.71 326.084 255.712C325.484 256.752 325.241 257.698 325.355 258.551C325.47 259.404 325.716 260.1 326.094 260.638L324.163 262.279C323.515 261.413 323.128 260.533 323.004 259.641C322.876 258.74 322.929 257.868 323.161 257.026C323.39 256.174 323.711 255.391 324.123 254.678C324.385 254.223 324.743 253.732 325.194 253.205C325.643 252.669 326.194 252.22 326.845 251.858C327.501 251.49 328.27 251.315 329.154 251.333C330.037 251.351 331.042 251.685 332.167 252.335L341.504 257.726L340.247 259.903L338.328 258.795L338.264 258.906C338.486 259.231 338.673 259.667 338.825 260.214C338.977 260.761 339.01 261.391 338.926 262.105C338.842 262.819 338.562 263.589 338.086 264.413ZM336.322 262.951C336.819 262.09 337.069 261.267 337.072 260.481C337.078 259.689 336.9 258.988 336.539 258.378C336.182 257.761 335.708 257.282 335.117 256.942L333.124 255.791C333.182 255.947 333.166 256.209 333.077 256.576C332.986 256.933 332.857 257.334 332.69 257.779C332.521 258.214 332.351 258.637 332.18 259.047C332.006 259.447 331.867 259.773 331.763 260.024C331.51 260.632 331.325 261.231 331.207 261.819C331.086 262.397 331.102 262.931 331.254 263.42C331.403 263.9 331.754 264.3 332.308 264.62C333.065 265.056 333.798 265.107 334.509 264.771C335.217 264.425 335.821 263.819 336.322 262.951ZM349.113 256.82L329.627 245.57L330.842 243.466L333.093 244.766L333.242 244.508C333.088 244.206 332.902 243.803 332.684 243.3C332.464 242.787 332.357 242.176 332.365 241.467C332.37 240.748 332.639 239.928 333.171 239.005C333.86 237.812 334.766 236.932 335.888 236.366C337.01 235.801 338.266 235.578 339.656 235.7C341.045 235.822 342.484 236.312 343.973 237.171C345.473 238.038 346.627 239.044 347.433 240.19C348.233 241.333 348.674 242.53 348.755 243.783C348.829 245.031 348.526 246.246 347.844 247.427C347.318 248.337 346.747 248.979 346.129 249.353C345.506 249.722 344.915 249.943 344.357 250.015C343.793 250.083 343.335 250.122 342.985 250.133L342.878 250.317L350.37 254.643L349.113 256.82ZM337.949 247.52C339.019 248.138 340.054 248.526 341.053 248.685C342.046 248.84 342.947 248.749 343.756 248.413C344.559 248.073 345.213 247.466 345.717 246.593C346.243 245.683 346.442 244.785 346.313 243.899C346.183 243.003 345.797 242.165 345.156 241.385C344.513 240.596 343.687 239.91 342.679 239.328C341.682 238.752 340.695 238.388 339.718 238.233C338.739 238.07 337.837 238.16 337.015 238.505C336.19 238.841 335.511 239.47 334.978 240.393C334.467 241.278 334.262 242.152 334.363 243.014C334.457 243.873 334.816 244.686 335.438 245.456C336.054 246.221 336.891 246.91 337.949 247.52ZM356.665 232.148C355.876 233.514 354.895 234.518 353.72 235.16C352.543 235.793 351.256 236.062 349.858 235.969C348.458 235.866 347.032 235.395 345.581 234.557C344.129 233.719 343.002 232.716 342.201 231.548C341.396 230.37 340.959 229.125 340.888 227.813C340.815 226.491 341.147 225.19 341.886 223.911C342.312 223.173 342.856 222.515 343.517 221.938C344.179 221.36 344.957 220.936 345.851 220.665C346.74 220.39 347.737 220.339 348.844 220.51C349.95 220.682 351.165 221.149 352.487 221.913L353.41 222.445L347.103 233.369L345.221 232.283L350.249 223.573C349.45 223.111 348.644 222.859 347.832 222.817C347.023 222.769 346.269 222.932 345.569 223.306C344.872 223.675 344.296 224.253 343.842 225.04C343.341 225.908 343.123 226.782 343.188 227.664C343.25 228.537 343.525 229.339 344.012 230.072C344.5 230.804 345.134 231.396 345.915 231.847L347.17 232.571C348.24 233.189 349.254 233.529 350.211 233.589C351.166 233.64 352.029 233.445 352.8 233.005C353.565 232.561 354.201 231.899 354.709 231.019C355.039 230.447 355.257 229.884 355.364 229.331C355.468 228.767 355.454 228.222 355.323 227.696C355.187 227.166 354.925 226.667 354.54 226.198L356.345 224.435C356.931 225.069 357.343 225.803 357.583 226.638C357.816 227.47 357.861 228.357 357.719 229.3C357.57 230.24 357.219 231.189 356.665 232.148ZM361.67 222.798L347.498 214.616L348.713 212.513L350.853 213.748L350.938 213.601C350.386 212.938 350.087 212.142 350.041 211.213C349.995 210.284 350.217 209.396 350.707 208.547C350.8 208.387 350.918 208.189 351.063 207.952C351.207 207.716 351.321 207.54 351.405 207.424L353.619 208.702C353.558 208.766 353.432 208.919 353.243 209.162C353.051 209.395 352.871 209.657 352.704 209.946C352.306 210.635 352.096 211.333 352.073 212.041C352.046 212.74 352.195 213.392 352.518 213.996C352.839 214.592 353.319 215.074 353.959 215.443L362.927 220.621L361.67 222.798Z" fill="white"/>
<path d="M346.293 301.431L334.956 294.885L335.71 293.579L339.895 295.995L339.959 295.884C339.867 295.703 339.755 295.462 339.625 295.16C339.492 294.852 339.428 294.486 339.433 294.06C339.436 293.629 339.597 293.136 339.917 292.583C340.33 291.867 340.873 291.339 341.547 291C342.22 290.66 342.974 290.527 343.807 290.6C344.641 290.673 345.505 290.967 346.398 291.483C347.298 292.003 347.99 292.606 348.474 293.294C348.954 293.98 349.218 294.698 349.267 295.449C349.312 296.199 349.129 296.927 348.72 297.636C348.405 298.182 348.062 298.567 347.692 298.791C347.317 299.013 346.963 299.146 346.628 299.189C346.29 299.229 346.015 299.253 345.805 299.259L345.715 299.414L347.022 300.169L346.293 301.431ZM342.783 297.692C343.425 298.063 344.046 298.296 344.646 298.391C345.241 298.484 345.782 298.43 346.268 298.228C346.75 298.024 347.142 297.66 347.444 297.136C347.76 296.589 347.879 296.051 347.802 295.519C347.724 294.982 347.492 294.479 347.108 294.011C346.722 293.537 346.226 293.126 345.621 292.776C345.023 292.431 344.431 292.212 343.845 292.12C343.257 292.022 342.716 292.076 342.223 292.283C341.728 292.484 341.32 292.862 341.001 293.415C340.694 293.947 340.571 294.471 340.632 294.988C340.688 295.503 340.904 295.992 341.277 296.453C341.646 296.913 342.148 297.326 342.783 297.692ZM354.016 288.463C353.543 289.283 352.954 289.885 352.249 290.27C351.543 290.65 350.771 290.812 349.932 290.756C349.092 290.694 348.237 290.411 347.366 289.908C346.495 289.406 345.819 288.804 345.338 288.103C344.855 287.396 344.592 286.649 344.55 285.862C344.506 285.069 344.706 284.289 345.149 283.521C345.404 283.078 345.731 282.683 346.128 282.337C346.524 281.99 346.991 281.736 347.528 281.573C348.061 281.409 348.659 281.378 349.323 281.481C349.987 281.583 350.716 281.864 351.509 282.322L352.063 282.642L348.279 289.196L347.15 288.544L350.167 283.318C349.687 283.041 349.203 282.89 348.716 282.865C348.231 282.835 347.779 282.933 347.358 283.158C346.94 283.379 346.595 283.726 346.322 284.199C346.022 284.719 345.891 285.244 345.93 285.773C345.967 286.296 346.132 286.778 346.425 287.217C346.717 287.657 347.098 288.012 347.566 288.282L348.319 288.717C348.961 289.088 349.57 289.291 350.144 289.328C350.717 289.358 351.234 289.241 351.697 288.977C352.156 288.711 352.538 288.314 352.842 287.786C353.041 287.443 353.172 287.105 353.235 286.773C353.298 286.435 353.29 286.108 353.211 285.792C353.129 285.474 352.973 285.174 352.741 284.893L353.824 283.836C354.176 284.216 354.423 284.656 354.567 285.157C354.707 285.656 354.734 286.189 354.648 286.754C354.559 287.318 354.348 287.888 354.016 288.463ZM358.663 280.466C358.352 281.005 357.968 281.435 357.511 281.757C357.051 282.077 356.553 282.254 356.016 282.289C355.476 282.321 354.929 282.178 354.375 281.858C353.888 281.577 353.549 281.253 353.357 280.886C353.161 280.518 353.07 280.123 353.081 279.701C353.093 279.28 353.169 278.851 353.308 278.415C353.445 277.973 353.602 277.539 353.778 277.114C354.01 276.559 354.202 276.112 354.354 275.771C354.505 275.425 354.58 275.154 354.58 274.957C354.583 274.757 354.479 274.596 354.269 274.475L354.224 274.449C353.678 274.134 353.167 274.038 352.692 274.163C352.219 274.283 351.809 274.644 351.462 275.246C351.102 275.869 350.956 276.437 351.024 276.949C351.093 277.461 351.241 277.878 351.468 278.201L350.309 279.186C349.92 278.666 349.688 278.138 349.613 277.603C349.537 277.062 349.568 276.539 349.708 276.034C349.845 275.523 350.038 275.053 350.285 274.625C350.442 274.352 350.657 274.058 350.928 273.742C351.197 273.42 351.527 273.15 351.918 272.933C352.312 272.713 352.773 272.608 353.303 272.618C353.833 272.629 354.436 272.83 355.111 273.22L360.714 276.454L359.959 277.76L358.808 277.096L358.77 277.162C358.903 277.357 359.015 277.619 359.106 277.947C359.197 278.275 359.217 278.653 359.167 279.082C359.116 279.51 358.948 279.972 358.663 280.466ZM357.604 279.589C357.903 279.073 358.053 278.578 358.054 278.107C358.058 277.632 357.951 277.211 357.735 276.845C357.52 276.475 357.236 276.188 356.881 275.983L355.686 275.293C355.72 275.387 355.711 275.544 355.657 275.764C355.603 275.978 355.525 276.219 355.425 276.486C355.324 276.747 355.221 277.001 355.119 277.246C355.015 277.486 354.931 277.682 354.869 277.833C354.717 278.198 354.606 278.557 354.535 278.91C354.463 279.257 354.472 279.577 354.563 279.871C354.653 280.159 354.864 280.398 355.196 280.59C355.65 280.852 356.09 280.882 356.516 280.681C356.941 280.473 357.304 280.11 357.604 279.589ZM355.722 265.462L356.83 266.102L354.285 270.508L353.178 269.869L355.722 265.462ZM351.883 267.408L352.637 266.102L360.741 270.781C361.11 270.994 361.418 271.1 361.664 271.1C361.909 271.094 362.112 271.024 362.272 270.89C362.432 270.751 362.567 270.585 362.677 270.393C362.761 270.249 362.821 270.127 362.86 270.026C362.895 269.923 362.923 269.841 362.943 269.779L364.27 270.191C364.252 270.299 364.214 270.442 364.156 270.619C364.101 270.799 364.004 271.011 363.863 271.255C363.65 271.624 363.362 271.94 362.998 272.202C362.637 272.461 362.227 272.613 361.768 272.658C361.311 272.7 360.836 272.577 360.341 272.292L351.883 267.408ZM362.151 258.726L361.805 260.091C361.567 260.052 361.314 260.052 361.046 260.089C360.777 260.12 360.512 260.223 360.249 260.396C359.987 260.569 359.746 260.846 359.526 261.226C359.226 261.747 359.095 262.249 359.135 262.735C359.173 263.214 359.375 263.56 359.74 263.771C360.065 263.958 360.39 263.988 360.714 263.861C361.039 263.733 361.409 263.455 361.824 263.025L362.863 261.942C363.486 261.288 364.095 260.885 364.691 260.731C365.282 260.576 365.875 260.67 366.469 261.013C366.957 261.294 367.311 261.686 367.533 262.188C367.757 262.686 367.836 263.248 367.77 263.875C367.703 264.501 367.48 265.144 367.098 265.804C366.597 266.672 365.995 267.281 365.29 267.632C364.586 267.983 363.828 268.025 363.017 267.759L363.423 266.34C363.949 266.486 364.421 266.461 364.84 266.265C365.26 266.065 365.625 265.697 365.934 265.162C366.286 264.553 366.435 263.995 366.384 263.488C366.331 262.975 366.121 262.613 365.756 262.402C365.461 262.232 365.154 262.192 364.835 262.284C364.513 262.373 364.178 262.603 363.832 262.974L362.681 264.199C362.047 264.871 361.431 265.278 360.832 265.42C360.232 265.556 359.639 265.454 359.052 265.115C358.573 264.838 358.226 264.459 358.012 263.976C357.801 263.49 357.725 262.952 357.786 262.362C357.848 261.768 358.052 261.172 358.397 260.574C358.883 259.733 359.449 259.179 360.095 258.912C360.743 258.642 361.428 258.58 362.151 258.726ZM372.505 256.03L364.002 251.121L364.731 249.859L366.015 250.6L366.067 250.512C365.735 250.114 365.556 249.636 365.528 249.079C365.501 248.522 365.634 247.989 365.928 247.479C365.983 247.383 366.054 247.264 366.141 247.123C366.228 246.981 366.296 246.875 366.346 246.806L367.675 247.573C367.638 247.611 367.563 247.702 367.449 247.848C367.334 247.988 367.226 248.145 367.126 248.319C366.887 248.732 366.761 249.151 366.747 249.576C366.731 249.995 366.821 250.386 367.015 250.749C367.207 251.106 367.495 251.395 367.879 251.617L373.26 254.724L372.505 256.03ZM377.876 247.137C377.433 247.904 376.861 248.472 376.161 248.841C375.464 249.206 374.693 249.361 373.848 249.306C373.006 249.248 372.146 248.966 371.267 248.458C370.382 247.947 369.701 247.34 369.226 246.638C368.753 245.932 368.5 245.185 368.467 244.398C368.436 243.608 368.642 242.829 369.085 242.062C369.528 241.294 370.099 240.728 370.797 240.363C371.497 239.994 372.269 239.84 373.115 239.901C373.964 239.957 374.83 240.241 375.716 240.753C376.594 241.26 377.268 241.865 377.738 242.569C378.209 243.27 378.46 244.015 378.491 244.805C378.524 245.592 378.319 246.369 377.876 247.137ZM376.702 246.459C377.039 245.876 377.167 245.31 377.085 244.761C377.003 244.212 376.771 243.707 376.388 243.244C376.006 242.782 375.53 242.387 374.962 242.059C374.394 241.731 373.812 241.516 373.217 241.413C372.621 241.311 372.064 241.36 371.544 241.562C371.024 241.764 370.596 242.156 370.259 242.739C369.922 243.322 369.797 243.889 369.882 244.44C369.967 244.992 370.203 245.499 370.589 245.963C370.976 246.428 371.453 246.824 372.022 247.152C372.59 247.48 373.17 247.694 373.761 247.795C374.353 247.895 374.907 247.844 375.423 247.64C375.939 247.436 376.366 247.042 376.702 246.459ZM383.246 237.836C382.786 238.633 382.201 239.21 381.493 239.569C380.784 239.927 380.01 240.071 379.17 239.999C378.33 239.928 377.486 239.647 376.637 239.157C375.774 238.659 375.103 238.06 374.626 237.361C374.147 236.656 373.886 235.911 373.844 235.123C373.8 234.33 373.999 233.55 374.443 232.782C374.788 232.185 375.21 231.71 375.708 231.358C376.206 231.006 376.743 230.792 377.319 230.716C377.894 230.639 378.469 230.718 379.043 230.951L378.289 232.257C377.844 232.133 377.373 232.156 376.876 232.327C376.377 232.492 375.961 232.862 375.629 233.438C375.335 233.947 375.21 234.47 375.254 235.008C375.297 235.539 375.496 236.05 375.852 236.541C376.207 237.026 376.705 237.454 377.347 237.825C378.004 238.204 378.636 238.431 379.242 238.506C379.851 238.577 380.4 238.5 380.889 238.275C381.38 238.047 381.774 237.675 382.073 237.158C382.269 236.818 382.387 236.476 382.429 236.131C382.471 235.786 382.436 235.454 382.326 235.134C382.215 234.814 382.028 234.524 381.765 234.264L382.519 232.958C382.979 233.321 383.325 233.765 383.559 234.289C383.792 234.807 383.888 235.372 383.85 235.985C383.81 236.591 383.608 237.208 383.246 237.836ZM383.705 229.472L382.076 228.561L382.229 228.295L380.591 222.389L381.524 220.773L383.243 227.05L383.179 227.161L383.705 229.472ZM386.102 232.48L374.765 225.934L375.519 224.628L386.856 231.173L386.102 232.48ZM389.221 227.077L383.097 227.969L382.726 226.515L390.18 225.416L389.221 227.077Z" fill="white"/>
<path d="M114.436 222.981L133.331 212.072L137.018 218.457C137.87 219.933 138.317 221.29 138.36 222.529C138.408 223.764 138.127 224.861 137.517 225.82C136.906 226.78 136.044 227.581 134.931 228.223C133.818 228.866 132.699 229.208 131.575 229.25C130.451 229.293 129.372 228.985 128.336 228.328C127.307 227.668 126.37 226.605 125.525 225.141L122.542 219.975L124.608 218.782L127.549 223.874C128.131 224.883 128.747 225.61 129.398 226.054C130.052 226.505 130.729 226.713 131.43 226.677C132.141 226.644 132.875 226.409 133.631 225.972C134.388 225.535 134.967 225.012 135.37 224.403C135.772 223.793 135.948 223.089 135.897 222.29C135.852 221.488 135.535 220.576 134.945 219.555L132.623 215.532L115.757 225.269L114.436 222.981ZM128.059 226.975L122.256 236.525L120.722 233.868L126.568 224.392L128.059 226.975ZM126.801 245.08C126.063 243.801 125.719 242.502 125.77 241.185C125.825 239.874 126.244 238.632 127.026 237.459C127.812 236.291 128.937 235.285 130.401 234.44C131.877 233.588 133.32 233.111 134.73 233.011C136.144 232.916 137.432 233.173 138.595 233.781C139.761 234.395 140.714 235.342 141.452 236.621C142.191 237.901 142.533 239.196 142.478 240.507C142.427 241.824 142.005 243.068 141.213 244.239C140.424 245.416 139.292 246.43 137.816 247.283C136.352 248.128 134.916 248.596 133.509 248.687C132.105 248.784 130.82 248.525 129.654 247.911C128.491 247.303 127.54 246.359 126.801 245.08ZM128.757 243.951C129.318 244.923 130.029 245.578 130.89 245.918C131.75 246.258 132.673 246.344 133.659 246.177C134.645 246.009 135.611 245.652 136.559 245.105C137.506 244.558 138.302 243.898 138.946 243.124C139.59 242.351 139.983 241.505 140.125 240.586C140.267 239.668 140.058 238.722 139.496 237.751C138.935 236.779 138.222 236.125 137.355 235.789C136.488 235.452 135.559 235.37 134.567 235.541C133.575 235.712 132.605 236.07 131.658 236.617C130.711 237.164 129.918 237.823 129.28 238.593C128.643 239.363 128.256 240.206 128.12 241.121C127.984 242.036 128.196 242.979 128.757 243.951ZM135.752 260.582C134.984 259.254 134.638 257.929 134.711 256.607C134.784 255.285 135.222 254.048 136.025 252.896C136.828 251.743 137.937 250.759 139.351 249.942C140.791 249.111 142.213 248.642 143.62 248.536C145.036 248.432 146.33 248.677 147.501 249.272C148.683 249.869 149.643 250.807 150.381 252.087C150.957 253.083 151.291 254.088 151.383 255.1C151.476 256.113 151.337 257.066 150.968 257.96C150.598 258.854 150.006 259.618 149.191 260.253L147.934 258.075C148.484 257.537 148.843 256.837 149.011 255.978C149.189 255.121 149.001 254.212 148.447 253.253C147.957 252.404 147.305 251.788 146.493 251.404C145.691 251.022 144.787 250.884 143.781 250.989C142.785 251.096 141.752 251.459 140.682 252.077C139.587 252.709 138.733 253.432 138.12 254.245C137.511 255.064 137.164 255.92 137.081 256.813C137.002 257.712 137.21 258.592 137.707 259.453C138.034 260.019 138.429 260.476 138.892 260.823C139.355 261.171 139.864 261.398 140.418 261.505C140.971 261.612 141.546 261.584 142.14 261.421L143.397 263.598C142.49 263.958 141.561 264.089 140.61 263.99C139.668 263.893 138.772 263.562 137.92 262.996C137.078 262.432 136.355 261.628 135.752 260.582ZM147.44 268.214L150.113 266.622L150.369 267.065L160.259 269.621L161.814 272.315L151.321 269.566L151.214 269.381L147.44 268.214ZM141.102 269.167L159.997 258.258L161.254 260.436L142.359 271.345L141.102 269.167ZM146.301 278.172L150.116 268.588L152.524 269.265L147.899 280.94L146.301 278.172Z" fill="white"/>
<path d="M78.3864 212.541L89.7234 205.996L90.4777 207.302L86.2927 209.718L86.3566 209.829C86.5597 209.84 86.8246 209.864 87.1514 209.902C87.484 209.941 87.8335 210.069 88.1997 210.285C88.5717 210.504 88.9175 210.889 89.2371 211.443C89.6504 212.159 89.8358 212.893 89.7932 213.646C89.7505 214.399 89.4892 215.118 89.0091 215.804C88.5291 216.489 87.8425 217.09 86.9494 217.606C86.049 218.126 85.18 218.423 84.3426 218.498C83.5088 218.571 82.7545 218.441 82.0796 218.107C81.4085 217.771 80.8683 217.249 80.4592 216.54C80.1439 215.994 79.9818 215.505 79.973 215.072C79.9679 214.637 80.0305 214.264 80.1607 213.952C80.2946 213.639 80.4114 213.389 80.511 213.204L80.4215 213.049L79.1151 213.803L78.3864 212.541ZM83.3792 211.371C82.7371 211.742 82.225 212.163 81.8428 212.634C81.4643 213.104 81.2411 213.599 81.1731 214.121C81.1088 214.64 81.228 215.162 81.5305 215.686C81.8459 216.232 82.2529 216.605 82.7517 216.804C83.2563 217.005 83.8073 217.055 84.4047 216.957C85.0079 216.859 85.6121 216.636 86.2173 216.286C86.8152 215.941 87.3007 215.538 87.6739 215.076C88.053 214.617 88.2762 214.121 88.3436 213.59C88.4168 213.061 88.2936 212.519 87.974 211.966C87.6672 211.434 87.2747 211.065 86.7965 210.859C86.322 210.651 85.7916 210.593 85.2053 210.686C84.6227 210.776 84.014 211.004 83.3792 211.371ZM85.755 225.713C85.282 224.894 85.0548 224.083 85.0735 223.28C85.0979 222.478 85.344 221.728 85.8119 221.03C86.2855 220.334 86.9579 219.734 87.8288 219.231C88.6997 218.728 89.559 218.444 90.4065 218.378C91.2598 218.313 92.038 218.459 92.741 218.816C93.4498 219.174 94.0258 219.737 94.469 220.505C94.7247 220.948 94.9033 221.428 95.005 221.945C95.1067 222.462 95.0937 222.993 94.9661 223.539C94.8422 224.083 94.5697 224.617 94.1487 225.141C93.7277 225.664 93.1204 226.155 92.327 226.613L91.7734 226.933L87.9893 220.378L89.1186 219.726L92.1356 224.952C92.6154 224.675 92.9881 224.332 93.2537 223.923C93.5215 223.517 93.663 223.076 93.6783 222.6C93.6958 222.127 93.5681 221.655 93.2954 221.182C92.995 220.662 92.6059 220.286 92.1281 220.056C91.6561 219.826 91.1567 219.728 90.6299 219.762C90.1031 219.795 89.6053 219.947 89.1366 220.218L88.3838 220.653C87.7416 221.023 87.2612 221.448 86.9425 221.928C86.6296 222.408 86.472 222.915 86.4696 223.448C86.4709 223.979 86.6239 224.508 86.9286 225.036C87.1268 225.379 87.3537 225.661 87.6095 225.882C87.871 226.105 88.1582 226.262 88.471 226.352C88.7875 226.44 89.1253 226.454 89.4844 226.394L89.8588 227.861C89.354 227.975 88.8487 227.969 88.3428 227.843C87.8407 227.715 87.366 227.472 86.9188 227.115C86.4754 226.756 86.0874 226.289 85.755 225.713ZM90.3575 233.736C90.0465 233.197 89.8656 232.65 89.8151 232.093C89.7682 231.535 89.8639 231.014 90.1023 230.532C90.3443 230.048 90.7421 229.646 91.2957 229.327C91.7828 229.046 92.2331 228.913 92.6465 228.931C93.0636 228.946 93.4516 229.064 93.8104 229.285C94.1692 229.506 94.5029 229.785 94.8115 230.124C95.1259 230.464 95.423 230.816 95.7026 231.181C96.0673 231.66 96.359 232.05 96.5776 232.352C96.802 232.655 96.9992 232.856 97.1693 232.955C97.3416 233.057 97.5329 233.048 97.7432 232.926L97.7875 232.901C98.3337 232.585 98.6718 232.191 98.8018 231.717C98.934 231.247 98.8264 230.711 98.4791 230.11C98.1191 229.486 97.7002 229.076 97.2226 228.879C96.7449 228.683 96.3095 228.602 95.9165 228.637L95.6434 227.141C96.2879 227.064 96.8606 227.127 97.3615 227.33C97.8683 227.535 98.3056 227.823 98.6736 228.197C99.0474 228.571 99.3578 228.973 99.605 229.401C99.7627 229.674 99.9106 230.007 100.049 230.399C100.193 230.794 100.261 231.214 100.253 231.661C100.248 232.112 100.108 232.565 99.8336 233.018C99.5592 233.472 99.0843 233.894 98.4089 234.284L92.8068 237.518L92.0526 236.212L93.204 235.547L93.1656 235.48C92.93 235.498 92.6473 235.465 92.3176 235.38C91.988 235.294 91.6502 235.123 91.3045 234.865C90.9587 234.607 90.6431 234.23 90.3575 233.736ZM91.6462 233.258C91.9445 233.774 92.2974 234.151 92.7049 234.388C93.1145 234.629 93.5321 234.747 93.9576 234.743C94.3852 234.742 94.7761 234.639 95.1304 234.435L96.3261 233.744C96.2277 233.727 96.0965 233.641 95.9325 233.484C95.7743 233.33 95.6046 233.142 95.4234 232.922C95.248 232.704 95.0794 232.488 94.9178 232.277C94.762 232.066 94.6344 231.897 94.535 231.767C94.2947 231.453 94.0395 231.177 93.7694 230.939C93.5051 230.703 93.223 230.551 92.923 230.483C92.6288 230.417 92.3156 230.48 91.9835 230.672C91.5296 230.934 91.2833 231.3 91.2447 231.77C91.2119 232.241 91.3457 232.737 91.6462 233.258ZM104.821 238.691L103.714 239.33L101.17 234.924L102.277 234.285L104.821 238.691ZM105.056 234.393L105.81 235.699L97.7059 240.378C97.3368 240.591 97.0909 240.805 96.9682 241.018C96.8513 241.233 96.8105 241.444 96.8457 241.65C96.8868 241.858 96.9628 242.057 97.0736 242.249C97.1567 242.393 97.2322 242.507 97.3003 242.591C97.372 242.672 97.4294 242.738 97.4724 242.787L96.4522 243.73C96.3679 243.66 96.2633 243.556 96.1385 243.416C96.0099 243.279 95.8754 243.089 95.7347 242.845C95.5217 242.476 95.3922 242.068 95.3463 241.623C95.3026 241.18 95.376 240.749 95.5665 240.329C95.7592 239.913 96.1028 239.562 96.5973 239.277L105.056 234.393ZM107.441 247.626L106.431 246.645C106.584 246.458 106.711 246.239 106.813 245.989C106.92 245.74 106.964 245.459 106.945 245.145C106.927 244.831 106.807 244.484 106.588 244.104C106.288 243.583 105.917 243.219 105.477 243.011C105.043 242.804 104.643 242.806 104.278 243.017C103.953 243.204 103.765 243.47 103.713 243.815C103.661 244.16 103.717 244.62 103.881 245.194L104.3 246.635C104.554 247.502 104.599 248.231 104.434 248.824C104.273 249.414 103.895 249.88 103.301 250.223C102.814 250.504 102.298 250.616 101.752 250.557C101.208 250.502 100.682 250.289 100.173 249.918C99.6638 249.548 99.2185 249.033 98.8372 248.372C98.3364 247.505 98.1102 246.678 98.1585 245.893C98.2068 245.107 98.549 244.43 99.1849 243.861L100.211 244.922C99.8214 245.304 99.6071 245.725 99.5679 246.186C99.5309 246.65 99.6668 247.15 99.9758 247.685C100.327 248.294 100.736 248.703 101.201 248.912C101.671 249.122 102.09 249.122 102.455 248.911C102.75 248.74 102.938 248.494 103.018 248.173C103.101 247.849 103.069 247.444 102.922 246.958L102.436 245.349C102.171 244.464 102.127 243.727 102.303 243.138C102.486 242.551 102.87 242.087 103.457 241.749C103.937 241.472 104.439 241.361 104.963 241.418C105.49 241.478 105.994 241.681 106.475 242.029C106.958 242.379 107.372 242.854 107.717 243.452C108.203 244.293 108.4 245.06 108.308 245.753C108.218 246.45 107.929 247.074 107.441 247.626ZM114.674 260.155L113.665 259.173C113.818 258.987 113.945 258.768 114.046 258.517C114.154 258.269 114.198 257.987 114.179 257.673C114.16 257.359 114.041 257.012 113.821 256.632C113.521 256.112 113.151 255.748 112.711 255.539C112.276 255.332 111.876 255.334 111.511 255.545C111.186 255.733 110.998 255.999 110.946 256.344C110.894 256.689 110.95 257.148 111.115 257.723L111.533 259.164C111.788 260.03 111.833 260.76 111.668 261.352C111.506 261.942 111.129 262.409 110.535 262.752C110.047 263.033 109.531 263.144 108.985 263.085C108.442 263.03 107.915 262.817 107.406 262.447C106.897 262.077 106.452 261.561 106.071 260.901C105.57 260.033 105.344 259.207 105.392 258.421C105.44 257.636 105.782 256.958 106.418 256.389L107.444 257.45C107.055 257.833 106.841 258.254 106.801 258.715C106.764 259.179 106.9 259.679 107.209 260.214C107.561 260.823 107.969 261.231 108.434 261.44C108.905 261.651 109.323 261.65 109.688 261.439C109.984 261.269 110.171 261.023 110.251 260.701C110.335 260.377 110.303 259.973 110.155 259.487L109.669 257.878C109.404 256.993 109.36 256.256 109.537 255.667C109.719 255.079 110.104 254.616 110.69 254.277C111.17 254 111.672 253.89 112.197 253.946C112.724 254.006 113.227 254.21 113.708 254.557C114.191 254.908 114.606 255.382 114.951 255.98C115.436 256.822 115.633 257.589 115.541 258.282C115.451 258.978 115.162 259.603 114.674 260.155ZM111.118 269.643C110.658 268.846 110.45 268.051 110.494 267.258C110.538 266.464 110.8 265.722 111.282 265.031C111.764 264.339 112.429 263.749 113.278 263.259C114.141 262.76 114.995 262.479 115.839 262.415C116.688 262.352 117.465 262.5 118.168 262.856C118.877 263.215 119.453 263.778 119.896 264.545C120.241 265.143 120.441 265.746 120.497 266.354C120.552 266.961 120.469 267.533 120.248 268.07C120.026 268.606 119.671 269.065 119.182 269.445L118.428 268.139C118.758 267.815 118.973 267.396 119.074 266.88C119.18 266.366 119.067 265.821 118.735 265.245C118.441 264.736 118.05 264.366 117.563 264.136C117.081 263.907 116.539 263.824 115.936 263.887C115.338 263.951 114.718 264.169 114.076 264.54C113.419 264.919 112.907 265.352 112.539 265.84C112.173 266.332 111.966 266.846 111.916 267.381C111.868 267.921 111.993 268.449 112.291 268.965C112.487 269.305 112.724 269.579 113.002 269.787C113.28 269.996 113.585 270.132 113.917 270.196C114.25 270.26 114.594 270.244 114.951 270.146L115.705 271.452C115.161 271.668 114.603 271.747 114.033 271.687C113.468 271.63 112.93 271.431 112.419 271.091C111.914 270.753 111.48 270.27 111.118 269.643ZM114.328 274.794L122.831 269.885L123.585 271.191L115.082 276.1L114.328 274.794ZM124.631 269.731C124.484 269.476 124.444 269.207 124.511 268.922C124.58 268.641 124.737 268.43 124.98 268.29C125.224 268.149 125.485 268.119 125.762 268.2C126.042 268.284 126.256 268.454 126.403 268.708C126.55 268.963 126.589 269.231 126.52 269.512C126.453 269.796 126.298 270.009 126.054 270.15C125.811 270.29 125.549 270.318 125.269 270.234C124.991 270.153 124.779 269.986 124.631 269.731ZM126.54 280.706L125.53 279.724C125.683 279.538 125.81 279.319 125.911 279.069C126.019 278.82 126.063 278.538 126.044 278.224C126.025 277.911 125.906 277.564 125.687 277.183C125.386 276.663 125.016 276.299 124.576 276.09C124.141 275.883 123.742 275.886 123.376 276.096C123.051 276.284 122.863 276.55 122.811 276.895C122.759 277.24 122.816 277.699 122.98 278.274L123.399 279.715C123.653 280.582 123.698 281.311 123.533 281.903C123.372 282.493 122.994 282.96 122.4 283.303C121.913 283.584 121.396 283.695 120.85 283.637C120.307 283.581 119.781 283.369 119.271 282.998C118.762 282.628 118.317 282.112 117.936 281.452C117.435 280.585 117.209 279.758 117.257 278.972C117.305 278.187 117.648 277.509 118.284 276.941L119.309 278.002C118.92 278.384 118.706 278.805 118.667 279.266C118.63 279.73 118.765 280.23 119.074 280.765C119.426 281.374 119.834 281.783 120.299 281.991C120.77 282.202 121.188 282.202 121.554 281.991C121.849 281.82 122.036 281.574 122.116 281.252C122.2 280.929 122.168 280.524 122.021 280.038L121.535 278.429C121.269 277.544 121.225 276.807 121.402 276.218C121.584 275.63 121.969 275.167 122.556 274.828C123.035 274.551 123.537 274.441 124.062 274.497C124.589 274.557 125.093 274.761 125.574 275.108C126.057 275.459 126.471 275.934 126.816 276.531C127.302 277.373 127.499 278.14 127.407 278.833C127.317 279.529 127.028 280.154 126.54 280.706ZM131.242 288.851L130.232 287.869C130.385 287.682 130.512 287.463 130.614 287.213C130.721 286.964 130.765 286.683 130.746 286.369C130.727 286.055 130.608 285.708 130.389 285.328C130.088 284.807 129.718 284.443 129.278 284.235C128.844 284.028 128.444 284.03 128.078 284.241C127.754 284.428 127.565 284.695 127.513 285.039C127.462 285.384 127.518 285.844 127.682 286.418L128.101 287.859C128.355 288.726 128.4 289.456 128.235 290.048C128.074 290.638 127.696 291.104 127.102 291.447C126.615 291.729 126.098 291.84 125.553 291.781C125.009 291.726 124.483 291.513 123.974 291.143C123.465 290.772 123.019 290.257 122.638 289.596C122.137 288.729 121.911 287.902 121.959 287.117C122.008 286.331 122.35 285.654 122.986 285.085L124.012 286.146C123.622 286.528 123.408 286.95 123.369 287.41C123.332 287.874 123.468 288.374 123.777 288.909C124.128 289.518 124.536 289.927 125.001 290.136C125.472 290.346 125.89 290.346 126.256 290.135C126.551 289.965 126.739 289.718 126.819 289.397C126.902 289.073 126.87 288.668 126.723 288.183L126.237 286.574C125.972 285.688 125.927 284.951 126.104 284.362C126.286 283.775 126.671 283.312 127.258 282.973C127.737 282.696 128.24 282.585 128.764 282.642C129.291 282.702 129.795 282.905 130.276 283.253C130.759 283.604 131.173 284.078 131.518 284.676C132.004 285.517 132.201 286.284 132.109 286.977C132.019 287.674 131.73 288.298 131.242 288.851ZM127.685 298.338C127.242 297.571 127.036 296.792 127.067 296.001C127.1 295.215 127.351 294.469 127.82 293.765C128.292 293.065 128.967 292.461 129.845 291.954C130.731 291.443 131.597 291.157 132.443 291.097C133.291 291.04 134.064 291.194 134.761 291.559C135.461 291.927 136.033 292.495 136.476 293.263C136.919 294.031 137.124 294.808 137.091 295.594C137.06 296.385 136.807 297.131 136.332 297.834C135.859 298.54 135.18 299.149 134.294 299.66C133.416 300.167 132.554 300.448 131.71 300.502C130.868 300.561 130.097 300.405 129.397 300.037C128.699 299.672 128.128 299.106 127.685 298.338ZM128.859 297.661C129.195 298.244 129.622 298.637 130.138 298.841C130.654 299.045 131.208 299.097 131.8 298.996C132.391 298.896 132.971 298.682 133.54 298.354C134.108 298.025 134.585 297.629 134.972 297.165C135.358 296.701 135.594 296.193 135.679 295.642C135.765 295.091 135.639 294.524 135.302 293.941C134.966 293.358 134.537 292.965 134.017 292.763C133.498 292.562 132.94 292.512 132.345 292.615C131.749 292.717 131.168 292.933 130.599 293.261C130.031 293.589 129.555 293.984 129.173 294.446C128.79 294.908 128.558 295.414 128.476 295.963C128.395 296.512 128.522 297.078 128.859 297.661ZM131.238 304.083L139.741 299.174L140.47 300.436L139.185 301.178L139.237 301.266C139.747 301.178 140.25 301.262 140.746 301.516C141.243 301.771 141.638 302.153 141.932 302.662C141.987 302.758 142.055 302.879 142.134 303.025C142.214 303.171 142.271 303.283 142.306 303.362L140.978 304.129C140.963 304.078 140.921 303.967 140.852 303.795C140.788 303.625 140.706 303.454 140.606 303.28C140.367 302.867 140.068 302.548 139.707 302.323C139.352 302.1 138.968 301.982 138.557 301.969C138.152 301.957 137.757 302.061 137.373 302.283L131.992 305.39L131.238 304.083ZM144.663 312.096L143.653 311.114C143.806 310.928 143.933 310.709 144.035 310.459C144.142 310.21 144.186 309.928 144.167 309.615C144.148 309.301 144.029 308.954 143.81 308.574C143.509 308.053 143.139 307.689 142.699 307.48C142.264 307.274 141.865 307.276 141.499 307.487C141.175 307.674 140.986 307.94 140.934 308.285C140.883 308.63 140.939 309.089 141.103 309.664L141.522 311.105C141.776 311.972 141.821 312.701 141.656 313.293C141.495 313.883 141.117 314.35 140.523 314.693C140.036 314.974 139.519 315.085 138.974 315.027C138.43 314.971 137.904 314.759 137.395 314.388C136.885 314.018 136.44 313.502 136.059 312.842C135.558 311.975 135.332 311.148 135.38 310.362C135.429 309.577 135.771 308.899 136.407 308.331L137.433 309.392C137.043 309.774 136.829 310.195 136.79 310.656C136.753 311.12 136.889 311.62 137.197 312.155C137.549 312.764 137.957 313.173 138.422 313.382C138.893 313.592 139.311 313.592 139.677 313.381C139.972 313.21 140.159 312.964 140.239 312.642C140.323 312.319 140.291 311.914 140.144 311.428L139.658 309.819C139.393 308.934 139.348 308.197 139.525 307.608C139.707 307.02 140.092 306.557 140.679 306.218C141.158 305.941 141.661 305.831 142.185 305.887C142.712 305.947 143.216 306.151 143.697 306.498C144.18 306.849 144.594 307.324 144.939 307.922C145.425 308.763 145.622 309.53 145.53 310.223C145.44 310.919 145.151 311.544 144.663 312.096Z" fill="white"/>
</svg>
