<svg width="128" height="128" viewBox="0 0 128 128" fill="none" xmlns="http://www.w3.org/2000/svg">
<path d="M64 126C98.2417 126 126 98.2417 126 64C126 29.7583 98.2417 2 64 2C29.7583 2 2 29.7583 2 64C2 98.2417 29.7583 126 64 126Z" fill="#008000" stroke="white" stroke-width="2.5"/>
<path d="M41.451 105.428C41.488 105.553 41.525 105.678 41.562 105.805C41.909 105.736 42.294 105.743 42.594 105.586C44.166 104.76 45.709 103.881 47.279 103.049C47.678 102.837 48.127 102.707 48.565 102.58C49.614 102.274 50.751 102.154 51.708 101.672C53.919 100.558 56.097 99.356 58.194 98.041C63.703 94.591 68.347 90.042 73.35 85.949C73.588 85.754 73.795 85.399 73.829 85.097C73.936 84.152 74.533 83.616 75.287 83.225C76.319 82.69 77.359 82.156 78.438 81.731C82.178 80.258 83.724 75.149 80.842 72.335C80.382 71.886 80.455 71.455 80.792 70.95C81.354 70.111 81.897 69.255 82.372 68.365C82.972 67.239 83.125 66.033 82.681 64.809C82.083 63.159 80.793 62.123 79.369 61.24C78.265 60.556 77.131 59.949 75.746 60.527C75.564 60.603 75.237 60.33 74.978 60.218C75.084 59.988 75.132 59.681 75.311 59.543C75.865 59.113 76.442 58.698 77.057 58.363C81.113 56.151 85.129 53.961 88.774 51.005C92.852 47.696 97.417 44.986 101.766 42.01C102.853 41.266 103.963 40.549 104.987 39.725C105.38 39.409 105.714 38.859 105.811 38.364C106.308 35.843 103.949 32.781 100.911 33.657C97.899 34.526 94.965 35.543 92.273 37.199C90.919 38.031 89.48 38.723 88.078 39.475C82.928 42.238 77.601 44.702 73.005 48.406C72.15 49.095 71.183 49.645 70.267 50.259C69.628 50.687 69.195 50.494 68.893 49.825C68.239 48.374 68.299 46.915 68.804 45.44C69.727 42.748 70.483 39.986 71.59 37.373C73.536 32.782 75.708 28.288 77.753 23.739C78.328 22.459 78.921 21.163 79.271 19.813C79.658 18.32 79.2 16.921 77.944 15.953C76.71 15 75.31 15.117 74.057 15.875C73.241 16.37 72.451 17.048 71.903 17.824C67.411 24.177 62.842 30.487 59.673 37.659C58.721 39.815 57.767 41.978 56.668 44.06C56.022 45.287 55.196 46.462 54.256 47.481C53.138 48.693 52.249 49.994 51.52 51.47C50.947 52.631 50.167 53.714 49.349 54.726C48.059 56.322 46.574 57.764 45.321 59.387C40.619 65.476 35.992 71.624 31.293 77.716C30.753 78.416 30.015 79.051 29.235 79.464C26.801 80.753 24.302 81.92 21.831 83.137C21.62 83.241 21.423 83.371 21.22 83.49C21.237 83.594 21.253 83.698 21.27 83.802C21.536 83.783 21.839 83.842 22.062 83.734C24.541 82.531 27 81.284 29.482 80.088C30.479 79.608 31.248 78.921 31.888 78.025C33.028 76.429 34.22 74.87 35.39 73.295C39.959 67.141 44.474 60.943 49.701 55.316C50.739 54.198 51.542 52.982 52.2 51.609C52.721 50.52 53.339 49.394 54.184 48.56C55.677 47.086 56.816 45.43 57.661 43.535C58.135 42.473 58.682 41.441 59.122 40.366C62.337 32.497 67.168 25.589 72.021 18.699C72.639 17.821 73.446 16.957 74.363 16.428C76.517 15.184 78.575 16.34 78.746 18.813C78.792 19.487 78.611 20.23 78.347 20.863C77.733 22.329 77.061 23.777 76.311 25.178C72.812 31.714 70.431 38.696 68.086 45.692C67.566 47.242 67.672 48.784 68.427 50.243C68.948 51.249 69.459 51.436 70.432 50.856C71.614 50.152 72.747 49.359 73.86 48.548C76.537 46.598 79.261 44.756 82.252 43.279C85.872 41.491 89.407 39.523 92.922 37.531C95.532 36.052 98.315 35.092 101.167 34.233C103.366 33.571 105.476 35.833 105.244 37.934C105.188 38.446 104.845 39.066 104.435 39.373C103.016 40.438 101.501 41.375 100.039 42.384C95.978 45.185 91.785 47.818 87.919 50.865C85.174 53.028 82.327 54.922 79.233 56.495C78.278 56.981 77.324 57.474 76.406 58.026C75.781 58.401 75.18 58.842 74.648 59.339C74.427 59.545 74.238 60.064 74.348 60.281C74.534 60.644 74.934 60.951 75.314 61.141C75.543 61.256 75.907 61.069 76.209 61.079C76.802 61.098 77.505 60.97 77.965 61.24C79.113 61.914 80.255 62.667 81.207 63.588C82.515 64.853 82.671 66.455 81.826 68.068C81.277 69.117 80.608 70.104 79.932 71.217C78.863 70.345 77.88 69.538 76.889 68.742C76.768 68.644 76.597 68.607 76.45 68.542C76.434 68.729 76.333 68.995 76.419 69.089C76.764 69.469 77.173 69.79 77.547 70.144C78.584 71.126 79.729 72.022 80.623 73.12C82.311 75.191 81.94 78.293 79.934 80.056C79.778 80.194 79.572 80.398 79.407 80.383C77.826 80.232 76.523 80.824 75.522 81.969C74.67 82.944 73.27 83.529 73.193 85.107C73.183 85.319 72.88 85.542 72.673 85.716C69.984 87.995 67.349 90.346 64.578 92.524C59.458 96.546 54.407 100.636 47.805 102.228C45.559 102.769 43.561 104.332 41.451 105.428Z" stroke="white" stroke-width="2.5"/>
<path d="M41.451 105.428C43.56 104.332 45.558 102.769 47.802 102.229C54.405 100.637 59.455 96.547 64.575 92.525C67.346 90.348 69.98 87.997 72.67 85.717C72.876 85.543 73.18 85.321 73.19 85.108C73.267 83.53 74.668 82.945 75.519 81.97C76.52 80.825 77.823 80.233 79.404 80.384C79.569 80.4 79.775 80.195 79.931 80.057C81.938 78.294 82.309 75.192 80.62 73.121C79.725 72.023 78.581 71.127 77.544 70.145C77.17 69.791 76.761 69.47 76.416 69.09C76.33 68.995 76.432 68.73 76.447 68.543C76.594 68.608 76.765 68.645 76.886 68.743C77.877 69.538 78.86 70.346 79.929 71.218C80.605 70.104 81.274 69.118 81.823 68.069C82.668 66.456 82.511 64.854 81.204 63.589C80.252 62.668 79.11 61.915 77.962 61.241C77.502 60.971 76.799 61.099 76.206 61.08C75.904 61.07 75.541 61.257 75.311 61.142C74.931 60.953 74.531 60.645 74.345 60.282C74.235 60.065 74.424 59.546 74.645 59.34C75.177 58.843 75.778 58.402 76.403 58.027C77.321 57.475 78.275 56.982 79.23 56.496C82.324 54.923 85.17 53.029 87.916 50.866C91.782 47.819 95.976 45.186 100.036 42.385C101.499 41.376 103.014 40.44 104.432 39.374C104.841 39.067 105.185 38.446 105.241 37.935C105.472 35.833 103.363 33.572 101.164 34.234C98.311 35.092 95.529 36.053 92.919 37.532C89.404 39.524 85.869 41.492 82.249 43.28C79.259 44.757 76.534 46.599 73.857 48.549C72.745 49.36 71.611 50.153 70.429 50.857C69.456 51.437 68.945 51.25 68.424 50.244C67.669 48.785 67.564 47.243 68.083 45.693C70.428 38.697 72.809 31.715 76.308 25.179C77.058 23.778 77.73 22.33 78.344 20.864C78.609 20.232 78.789 19.489 78.743 18.814C78.572 16.341 76.514 15.185 74.36 16.429C73.443 16.958 72.636 17.821 72.018 18.7C67.164 25.591 62.333 32.499 59.119 40.367C58.68 41.443 58.132 42.474 57.658 43.536C56.813 45.431 55.675 47.087 54.181 48.561C53.335 49.395 52.718 50.521 52.197 51.61C51.539 52.982 50.736 54.198 49.698 55.317C44.471 60.944 39.956 67.143 35.387 73.296C34.217 74.871 33.025 76.43 31.885 78.026C31.245 78.922 30.476 79.609 29.479 80.089C26.997 81.285 24.538 82.531 22.059 83.735C21.836 83.843 21.533 83.784 21.267 83.803C21.25 83.699 21.234 83.595 21.217 83.491C21.42 83.372 21.617 83.241 21.828 83.138C24.3 81.92 26.798 80.754 29.232 79.465C30.012 79.052 30.75 78.417 31.29 77.717C35.989 71.625 40.616 65.478 45.318 59.388C46.571 57.765 48.056 56.324 49.346 54.727C50.164 53.715 50.944 52.632 51.517 51.471C52.246 49.995 53.135 48.694 54.253 47.482C55.193 46.463 56.019 45.288 56.665 44.061C57.764 41.978 58.718 39.816 59.67 37.66C62.84 30.488 67.408 24.178 71.9 17.825C72.448 17.049 73.238 16.371 74.054 15.876C75.307 15.118 76.706 15.001 77.941 15.954C79.197 16.922 79.655 18.321 79.268 19.814C78.918 21.164 78.326 22.46 77.75 23.74C75.705 28.289 73.533 32.783 71.587 37.374C70.48 39.987 69.724 42.749 68.801 45.441C68.296 46.916 68.236 48.375 68.89 49.826C69.192 50.495 69.625 50.688 70.264 50.26C71.18 49.647 72.147 49.097 73.002 48.407C77.599 44.702 82.925 42.239 88.075 39.476C89.477 38.724 90.917 38.032 92.27 37.2C94.961 35.545 97.896 34.527 100.908 33.658C103.946 32.782 106.305 35.844 105.808 38.365C105.71 38.86 105.376 39.41 104.984 39.726C103.961 40.55 102.85 41.267 101.763 42.011C97.413 44.987 92.849 47.697 88.771 51.006C85.126 53.963 81.11 56.152 77.054 58.364C76.439 58.699 75.862 59.114 75.308 59.544C75.129 59.683 75.081 59.989 74.975 60.219C75.234 60.33 75.561 60.603 75.743 60.528C77.128 59.951 78.262 60.557 79.366 61.241C80.791 62.124 82.081 63.159 82.678 64.81C83.122 66.034 82.969 67.24 82.369 68.366C81.894 69.256 81.35 70.112 80.789 70.951C80.452 71.456 80.379 71.887 80.839 72.336C83.721 75.15 82.175 80.259 78.435 81.732C77.356 82.157 76.316 82.691 75.284 83.226C74.53 83.616 73.933 84.152 73.826 85.098C73.792 85.4 73.585 85.754 73.347 85.95C68.344 90.043 63.7 94.593 58.191 98.042C56.093 99.356 53.916 100.559 51.705 101.673C50.748 102.155 49.611 102.276 48.562 102.581C48.124 102.708 47.675 102.838 47.276 103.05C45.707 103.882 44.164 104.761 42.591 105.587C42.291 105.743 41.905 105.736 41.559 105.806C41.525 105.678 41.488 105.553 41.451 105.428Z" stroke="white" stroke-width="2.5"/>
</svg>
